%FSLAX45Y45*%
G04 Gerber Fmt 4.5, Leading zero omitted, Abs format (unit mm)*
G04 Created by KiCad (PCBNEW (6.0.5)) date 2022-07-17 20:37:49*
%MOMM*%
%LPD*%
G01*
G04 APERTURE LIST*
%TA.AperFunction,Profile*%
%ADD10C,0.100000*%
%TD*%
%ADD11C,0.200000*%
G04 APERTURE END LIST*
D10*
X11938000Y-2540000D02*
X8001000Y-2540000D01*
X8001000Y-2540000D02*
X8001000Y-10414000D01*
X8001000Y-10414000D02*
X11938000Y-10414000D01*
X11938000Y-10414000D02*
X11938000Y-2540000D01*
D11*
X8253619Y-10729476D02*
X8253619Y-10529476D01*
X8301238Y-10529476D01*
X8329809Y-10539000D01*
X8348857Y-10558048D01*
X8358381Y-10577095D01*
X8367905Y-10615190D01*
X8367905Y-10643762D01*
X8358381Y-10681857D01*
X8348857Y-10700905D01*
X8329809Y-10719952D01*
X8301238Y-10729476D01*
X8253619Y-10729476D01*
X8453619Y-10729476D02*
X8453619Y-10596143D01*
X8453619Y-10634238D02*
X8463143Y-10615190D01*
X8472667Y-10605667D01*
X8491714Y-10596143D01*
X8510762Y-10596143D01*
X8577429Y-10729476D02*
X8577429Y-10596143D01*
X8577429Y-10529476D02*
X8567905Y-10539000D01*
X8577429Y-10548524D01*
X8586952Y-10539000D01*
X8577429Y-10529476D01*
X8577429Y-10548524D01*
X8701238Y-10729476D02*
X8682190Y-10719952D01*
X8672667Y-10700905D01*
X8672667Y-10529476D01*
X8806000Y-10729476D02*
X8786952Y-10719952D01*
X8777429Y-10700905D01*
X8777429Y-10529476D01*
X9034571Y-10729476D02*
X9034571Y-10529476D01*
X9101238Y-10672333D01*
X9167905Y-10529476D01*
X9167905Y-10729476D01*
X9348857Y-10729476D02*
X9348857Y-10624714D01*
X9339333Y-10605667D01*
X9320286Y-10596143D01*
X9282190Y-10596143D01*
X9263143Y-10605667D01*
X9348857Y-10719952D02*
X9329810Y-10729476D01*
X9282190Y-10729476D01*
X9263143Y-10719952D01*
X9253619Y-10700905D01*
X9253619Y-10681857D01*
X9263143Y-10662810D01*
X9282190Y-10653286D01*
X9329810Y-10653286D01*
X9348857Y-10643762D01*
X9444095Y-10596143D02*
X9444095Y-10796143D01*
X9444095Y-10605667D02*
X9463143Y-10596143D01*
X9501238Y-10596143D01*
X9520286Y-10605667D01*
X9529810Y-10615190D01*
X9539333Y-10634238D01*
X9539333Y-10691381D01*
X9529810Y-10710429D01*
X9520286Y-10719952D01*
X9501238Y-10729476D01*
X9463143Y-10729476D01*
X9444095Y-10719952D01*
X9625048Y-10710429D02*
X9634571Y-10719952D01*
X9625048Y-10729476D01*
X9615524Y-10719952D01*
X9625048Y-10710429D01*
X9625048Y-10729476D01*
X9625048Y-10605667D02*
X9634571Y-10615190D01*
X9625048Y-10624714D01*
X9615524Y-10615190D01*
X9625048Y-10605667D01*
X9625048Y-10624714D01*
M02*
