M48
; DRILL file {KiCad (6.0.5)} date Sun Jul 17 20:37:45 2022
; FORMAT={-:-/ absolute / metric / decimal}
; #@! TF.CreationDate,2022-07-17T20:37:45+02:00
; #@! TF.GenerationSoftware,Kicad,Pcbnew,(6.0.5)
; #@! TF.FileFunction,Plated,1,2,PTH
FMAT,2
METRIC
; #@! TA.AperFunction,Plated,PTH,ViaDrill
T1C0.400
; #@! TA.AperFunction,Plated,PTH,ComponentDrill
T2C0.800
; #@! TA.AperFunction,Plated,PTH,ComponentDrill
T3C1.000
%
G90
G05
T1
X92.3Y-71.509
X93.039Y-70.414
X94.031Y-43.393
X95.546Y-67.906
X96.302Y-99.76
X96.386Y-68.482
X102.478Y-93.646
X104.8Y-93.253
X105.787Y-93.694
X106.898Y-93.839
X108.6Y-70.994
X109.716Y-68.923
X111.262Y-76.635
X114.81Y-82.121
T2
X82.555Y-27.93
X82.555Y-30.47
X82.555Y-33.01
X82.555Y-35.55
X82.555Y-38.09
X82.555Y-40.63
X82.555Y-43.17
X82.555Y-45.71
X82.555Y-48.25
X82.555Y-50.79
X82.555Y-53.33
X82.555Y-55.87
X82.555Y-58.41
X82.555Y-60.95
X82.555Y-63.49
X82.555Y-66.03
X82.555Y-68.57
X82.555Y-71.11
X82.555Y-73.65
X82.555Y-76.19
X82.555Y-78.73
X82.555Y-81.27
X82.555Y-83.81
X82.555Y-86.35
X88.895Y-90.16
X88.895Y-97.78
X88.905Y-27.93
X88.905Y-30.47
X88.905Y-33.01
X88.905Y-35.55
X88.905Y-38.09
X88.905Y-40.63
X88.905Y-43.17
X88.905Y-45.71
X88.905Y-48.25
X88.905Y-50.79
X88.905Y-53.33
X88.905Y-55.87
X88.905Y-58.41
X88.905Y-60.95
X88.905Y-63.49
X88.905Y-66.03
X88.905Y-68.57
X88.905Y-71.11
X88.905Y-73.65
X88.905Y-76.19
X88.905Y-78.73
X88.905Y-81.27
X88.905Y-83.81
X88.905Y-86.35
X91.435Y-90.16
X91.435Y-97.78
X93.975Y-90.16
X93.975Y-97.78
X93.98Y-101.6
X96.515Y-90.16
X96.515Y-97.78
X97.795Y-27.93
X97.795Y-30.47
X97.795Y-33.01
X97.795Y-35.55
X97.795Y-38.09
X97.795Y-40.63
X97.795Y-43.17
X97.795Y-45.71
X97.795Y-48.25
X97.795Y-50.79
X97.795Y-53.33
X97.795Y-55.87
X97.795Y-58.41
X97.795Y-60.95
X97.795Y-63.49
X97.795Y-66.03
X97.795Y-68.57
X97.795Y-71.11
X97.795Y-73.65
X97.795Y-76.19
X97.795Y-78.73
X97.795Y-81.27
X97.795Y-83.81
X97.795Y-86.35
X99.055Y-90.16
X99.055Y-97.78
X101.595Y-90.16
X101.595Y-97.78
X101.605Y-27.93
X101.605Y-30.47
X101.605Y-33.01
X101.605Y-35.55
X101.605Y-38.09
X101.605Y-40.63
X101.605Y-43.17
X101.605Y-45.71
X101.605Y-48.25
X101.605Y-50.79
X101.605Y-53.33
X101.605Y-55.87
X101.605Y-58.41
X101.605Y-60.95
X101.605Y-63.49
X101.605Y-66.03
X101.605Y-68.57
X101.605Y-71.11
X101.605Y-73.65
X101.605Y-76.19
X101.605Y-78.73
X101.605Y-81.27
X101.605Y-83.81
X101.605Y-86.35
X104.135Y-90.16
X104.135Y-97.78
X104.14Y-101.6
X104.145Y-27.93
X104.145Y-30.47
X104.145Y-33.01
X104.145Y-35.55
X104.145Y-38.09
X104.145Y-40.63
X104.145Y-43.17
X104.145Y-45.71
X104.145Y-48.25
X104.145Y-50.79
X104.145Y-53.33
X104.145Y-55.87
X104.145Y-58.41
X104.145Y-60.95
X104.145Y-63.49
X104.145Y-66.03
X104.145Y-68.57
X104.145Y-71.11
X104.145Y-73.65
X104.145Y-76.19
X104.145Y-78.73
X104.145Y-81.27
X104.145Y-83.81
X104.145Y-86.35
X106.675Y-90.16
X106.675Y-97.78
X106.68Y-101.6
X109.215Y-90.16
X109.215Y-97.78
X111.755Y-90.16
X111.755Y-97.78
X114.295Y-90.16
X114.295Y-97.78
X116.835Y-90.16
X116.835Y-97.78
X116.84Y-101.6
X116.845Y-27.93
X116.845Y-30.47
X116.845Y-33.01
X116.845Y-35.55
X116.845Y-38.09
X116.845Y-40.63
X116.845Y-43.17
X116.845Y-45.71
X116.845Y-48.25
X116.845Y-50.79
X116.845Y-53.33
X116.845Y-55.87
X116.845Y-58.41
X116.845Y-60.95
X116.845Y-63.49
X116.845Y-66.03
X116.845Y-68.57
X116.845Y-71.11
X116.845Y-73.65
X116.845Y-76.19
X116.845Y-78.73
X116.845Y-81.27
X116.845Y-83.81
X116.845Y-86.35
T3
X82.55Y-91.44
X82.55Y-93.98
X82.55Y-99.06
X82.55Y-101.6
X87.0Y-101.6
X89.54Y-101.6
T0
M30
