%FSLAX45Y45*%
G04 Gerber Fmt 4.5, Leading zero omitted, Abs format (unit mm)*
G04 Created by KiCad (PCBNEW (6.0.5)) date 2022-07-17 20:37:49*
%MOMM*%
%LPD*%
G01*
G04 APERTURE LIST*
%TA.AperFunction,Profile*%
%ADD10C,0.100000*%
%TD*%
%ADD11C,0.200000*%
%ADD12C,0.040000*%
%ADD13C,0.080000*%
%ADD14C,0.100000*%
G04 APERTURE END LIST*
D10*
X11938000Y-2540000D02*
X8001000Y-2540000D01*
X8001000Y-2540000D02*
X8001000Y-10414000D01*
X8001000Y-10414000D02*
X11938000Y-10414000D01*
X11938000Y-10414000D02*
X11938000Y-2540000D01*
D11*
D12*
X9210040Y-7130900D02*
X9250040Y-7170900D01*
X9250040Y-7130900D02*
X9210040Y-7170900D01*
X9283890Y-7021360D02*
X9323890Y-7061360D01*
X9323890Y-7021360D02*
X9283890Y-7061360D01*
X9383120Y-4319290D02*
X9423120Y-4359290D01*
X9423120Y-4319290D02*
X9383120Y-4359290D01*
X9534610Y-6770640D02*
X9574610Y-6810640D01*
X9574610Y-6770640D02*
X9534610Y-6810640D01*
X9610180Y-9956050D02*
X9650180Y-9996050D01*
X9650180Y-9956050D02*
X9610180Y-9996050D01*
X9618610Y-6828160D02*
X9658610Y-6868160D01*
X9658610Y-6828160D02*
X9618610Y-6868160D01*
X10227850Y-9344610D02*
X10267850Y-9384610D01*
X10267850Y-9344610D02*
X10227850Y-9384610D01*
X10460040Y-9305290D02*
X10500040Y-9345290D01*
X10500040Y-9305290D02*
X10460040Y-9345290D01*
X10558670Y-9349400D02*
X10598670Y-9389400D01*
X10598670Y-9349400D02*
X10558670Y-9389400D01*
X10669790Y-9363930D02*
X10709790Y-9403930D01*
X10709790Y-9363930D02*
X10669790Y-9403930D01*
X10839990Y-7079360D02*
X10879990Y-7119360D01*
X10879990Y-7079360D02*
X10839990Y-7119360D01*
X10951570Y-6872330D02*
X10991570Y-6912330D01*
X10991570Y-6872330D02*
X10951570Y-6912330D01*
X11106180Y-7643530D02*
X11146180Y-7683530D01*
X11146180Y-7643530D02*
X11106180Y-7683530D01*
X11461020Y-8192150D02*
X11501020Y-8232150D01*
X11501020Y-8192150D02*
X11461020Y-8232150D01*
D13*
X8295500Y-2793000D02*
G75*
G03*
X8295500Y-2793000I-40000J0D01*
G01*
X8295500Y-3047000D02*
G75*
G03*
X8295500Y-3047000I-40000J0D01*
G01*
X8295500Y-3301000D02*
G75*
G03*
X8295500Y-3301000I-40000J0D01*
G01*
X8295500Y-3555000D02*
G75*
G03*
X8295500Y-3555000I-40000J0D01*
G01*
X8295500Y-3809000D02*
G75*
G03*
X8295500Y-3809000I-40000J0D01*
G01*
X8295500Y-4063000D02*
G75*
G03*
X8295500Y-4063000I-40000J0D01*
G01*
X8295500Y-4317000D02*
G75*
G03*
X8295500Y-4317000I-40000J0D01*
G01*
X8295500Y-4571000D02*
G75*
G03*
X8295500Y-4571000I-40000J0D01*
G01*
X8295500Y-4825000D02*
G75*
G03*
X8295500Y-4825000I-40000J0D01*
G01*
X8295500Y-5079000D02*
G75*
G03*
X8295500Y-5079000I-40000J0D01*
G01*
X8295500Y-5333000D02*
G75*
G03*
X8295500Y-5333000I-40000J0D01*
G01*
X8295500Y-5587000D02*
G75*
G03*
X8295500Y-5587000I-40000J0D01*
G01*
X8295500Y-5841000D02*
G75*
G03*
X8295500Y-5841000I-40000J0D01*
G01*
X8295500Y-6095000D02*
G75*
G03*
X8295500Y-6095000I-40000J0D01*
G01*
X8295500Y-6349000D02*
G75*
G03*
X8295500Y-6349000I-40000J0D01*
G01*
X8295500Y-6603000D02*
G75*
G03*
X8295500Y-6603000I-40000J0D01*
G01*
X8295500Y-6857000D02*
G75*
G03*
X8295500Y-6857000I-40000J0D01*
G01*
X8295500Y-7111000D02*
G75*
G03*
X8295500Y-7111000I-40000J0D01*
G01*
X8295500Y-7365000D02*
G75*
G03*
X8295500Y-7365000I-40000J0D01*
G01*
X8295500Y-7619000D02*
G75*
G03*
X8295500Y-7619000I-40000J0D01*
G01*
X8295500Y-7873000D02*
G75*
G03*
X8295500Y-7873000I-40000J0D01*
G01*
X8295500Y-8127000D02*
G75*
G03*
X8295500Y-8127000I-40000J0D01*
G01*
X8295500Y-8381000D02*
G75*
G03*
X8295500Y-8381000I-40000J0D01*
G01*
X8295500Y-8635000D02*
G75*
G03*
X8295500Y-8635000I-40000J0D01*
G01*
X8929500Y-9016000D02*
G75*
G03*
X8929500Y-9016000I-40000J0D01*
G01*
X8929500Y-9778000D02*
G75*
G03*
X8929500Y-9778000I-40000J0D01*
G01*
X8930500Y-2793000D02*
G75*
G03*
X8930500Y-2793000I-40000J0D01*
G01*
X8930500Y-3047000D02*
G75*
G03*
X8930500Y-3047000I-40000J0D01*
G01*
X8930500Y-3301000D02*
G75*
G03*
X8930500Y-3301000I-40000J0D01*
G01*
X8930500Y-3555000D02*
G75*
G03*
X8930500Y-3555000I-40000J0D01*
G01*
X8930500Y-3809000D02*
G75*
G03*
X8930500Y-3809000I-40000J0D01*
G01*
X8930500Y-4063000D02*
G75*
G03*
X8930500Y-4063000I-40000J0D01*
G01*
X8930500Y-4317000D02*
G75*
G03*
X8930500Y-4317000I-40000J0D01*
G01*
X8930500Y-4571000D02*
G75*
G03*
X8930500Y-4571000I-40000J0D01*
G01*
X8930500Y-4825000D02*
G75*
G03*
X8930500Y-4825000I-40000J0D01*
G01*
X8930500Y-5079000D02*
G75*
G03*
X8930500Y-5079000I-40000J0D01*
G01*
X8930500Y-5333000D02*
G75*
G03*
X8930500Y-5333000I-40000J0D01*
G01*
X8930500Y-5587000D02*
G75*
G03*
X8930500Y-5587000I-40000J0D01*
G01*
X8930500Y-5841000D02*
G75*
G03*
X8930500Y-5841000I-40000J0D01*
G01*
X8930500Y-6095000D02*
G75*
G03*
X8930500Y-6095000I-40000J0D01*
G01*
X8930500Y-6349000D02*
G75*
G03*
X8930500Y-6349000I-40000J0D01*
G01*
X8930500Y-6603000D02*
G75*
G03*
X8930500Y-6603000I-40000J0D01*
G01*
X8930500Y-6857000D02*
G75*
G03*
X8930500Y-6857000I-40000J0D01*
G01*
X8930500Y-7111000D02*
G75*
G03*
X8930500Y-7111000I-40000J0D01*
G01*
X8930500Y-7365000D02*
G75*
G03*
X8930500Y-7365000I-40000J0D01*
G01*
X8930500Y-7619000D02*
G75*
G03*
X8930500Y-7619000I-40000J0D01*
G01*
X8930500Y-7873000D02*
G75*
G03*
X8930500Y-7873000I-40000J0D01*
G01*
X8930500Y-8127000D02*
G75*
G03*
X8930500Y-8127000I-40000J0D01*
G01*
X8930500Y-8381000D02*
G75*
G03*
X8930500Y-8381000I-40000J0D01*
G01*
X8930500Y-8635000D02*
G75*
G03*
X8930500Y-8635000I-40000J0D01*
G01*
X9183500Y-9016000D02*
G75*
G03*
X9183500Y-9016000I-40000J0D01*
G01*
X9183500Y-9778000D02*
G75*
G03*
X9183500Y-9778000I-40000J0D01*
G01*
X9437500Y-9016000D02*
G75*
G03*
X9437500Y-9016000I-40000J0D01*
G01*
X9437500Y-9778000D02*
G75*
G03*
X9437500Y-9778000I-40000J0D01*
G01*
X9438000Y-10160000D02*
G75*
G03*
X9438000Y-10160000I-40000J0D01*
G01*
X9691500Y-9016000D02*
G75*
G03*
X9691500Y-9016000I-40000J0D01*
G01*
X9691500Y-9778000D02*
G75*
G03*
X9691500Y-9778000I-40000J0D01*
G01*
X9819500Y-2793000D02*
G75*
G03*
X9819500Y-2793000I-40000J0D01*
G01*
X9819500Y-3047000D02*
G75*
G03*
X9819500Y-3047000I-40000J0D01*
G01*
X9819500Y-3301000D02*
G75*
G03*
X9819500Y-3301000I-40000J0D01*
G01*
X9819500Y-3555000D02*
G75*
G03*
X9819500Y-3555000I-40000J0D01*
G01*
X9819500Y-3809000D02*
G75*
G03*
X9819500Y-3809000I-40000J0D01*
G01*
X9819500Y-4063000D02*
G75*
G03*
X9819500Y-4063000I-40000J0D01*
G01*
X9819500Y-4317000D02*
G75*
G03*
X9819500Y-4317000I-40000J0D01*
G01*
X9819500Y-4571000D02*
G75*
G03*
X9819500Y-4571000I-40000J0D01*
G01*
X9819500Y-4825000D02*
G75*
G03*
X9819500Y-4825000I-40000J0D01*
G01*
X9819500Y-5079000D02*
G75*
G03*
X9819500Y-5079000I-40000J0D01*
G01*
X9819500Y-5333000D02*
G75*
G03*
X9819500Y-5333000I-40000J0D01*
G01*
X9819500Y-5587000D02*
G75*
G03*
X9819500Y-5587000I-40000J0D01*
G01*
X9819500Y-5841000D02*
G75*
G03*
X9819500Y-5841000I-40000J0D01*
G01*
X9819500Y-6095000D02*
G75*
G03*
X9819500Y-6095000I-40000J0D01*
G01*
X9819500Y-6349000D02*
G75*
G03*
X9819500Y-6349000I-40000J0D01*
G01*
X9819500Y-6603000D02*
G75*
G03*
X9819500Y-6603000I-40000J0D01*
G01*
X9819500Y-6857000D02*
G75*
G03*
X9819500Y-6857000I-40000J0D01*
G01*
X9819500Y-7111000D02*
G75*
G03*
X9819500Y-7111000I-40000J0D01*
G01*
X9819500Y-7365000D02*
G75*
G03*
X9819500Y-7365000I-40000J0D01*
G01*
X9819500Y-7619000D02*
G75*
G03*
X9819500Y-7619000I-40000J0D01*
G01*
X9819500Y-7873000D02*
G75*
G03*
X9819500Y-7873000I-40000J0D01*
G01*
X9819500Y-8127000D02*
G75*
G03*
X9819500Y-8127000I-40000J0D01*
G01*
X9819500Y-8381000D02*
G75*
G03*
X9819500Y-8381000I-40000J0D01*
G01*
X9819500Y-8635000D02*
G75*
G03*
X9819500Y-8635000I-40000J0D01*
G01*
X9945500Y-9016000D02*
G75*
G03*
X9945500Y-9016000I-40000J0D01*
G01*
X9945500Y-9778000D02*
G75*
G03*
X9945500Y-9778000I-40000J0D01*
G01*
X10199500Y-9016000D02*
G75*
G03*
X10199500Y-9016000I-40000J0D01*
G01*
X10199500Y-9778000D02*
G75*
G03*
X10199500Y-9778000I-40000J0D01*
G01*
X10200500Y-2793000D02*
G75*
G03*
X10200500Y-2793000I-40000J0D01*
G01*
X10200500Y-3047000D02*
G75*
G03*
X10200500Y-3047000I-40000J0D01*
G01*
X10200500Y-3301000D02*
G75*
G03*
X10200500Y-3301000I-40000J0D01*
G01*
X10200500Y-3555000D02*
G75*
G03*
X10200500Y-3555000I-40000J0D01*
G01*
X10200500Y-3809000D02*
G75*
G03*
X10200500Y-3809000I-40000J0D01*
G01*
X10200500Y-4063000D02*
G75*
G03*
X10200500Y-4063000I-40000J0D01*
G01*
X10200500Y-4317000D02*
G75*
G03*
X10200500Y-4317000I-40000J0D01*
G01*
X10200500Y-4571000D02*
G75*
G03*
X10200500Y-4571000I-40000J0D01*
G01*
X10200500Y-4825000D02*
G75*
G03*
X10200500Y-4825000I-40000J0D01*
G01*
X10200500Y-5079000D02*
G75*
G03*
X10200500Y-5079000I-40000J0D01*
G01*
X10200500Y-5333000D02*
G75*
G03*
X10200500Y-5333000I-40000J0D01*
G01*
X10200500Y-5587000D02*
G75*
G03*
X10200500Y-5587000I-40000J0D01*
G01*
X10200500Y-5841000D02*
G75*
G03*
X10200500Y-5841000I-40000J0D01*
G01*
X10200500Y-6095000D02*
G75*
G03*
X10200500Y-6095000I-40000J0D01*
G01*
X10200500Y-6349000D02*
G75*
G03*
X10200500Y-6349000I-40000J0D01*
G01*
X10200500Y-6603000D02*
G75*
G03*
X10200500Y-6603000I-40000J0D01*
G01*
X10200500Y-6857000D02*
G75*
G03*
X10200500Y-6857000I-40000J0D01*
G01*
X10200500Y-7111000D02*
G75*
G03*
X10200500Y-7111000I-40000J0D01*
G01*
X10200500Y-7365000D02*
G75*
G03*
X10200500Y-7365000I-40000J0D01*
G01*
X10200500Y-7619000D02*
G75*
G03*
X10200500Y-7619000I-40000J0D01*
G01*
X10200500Y-7873000D02*
G75*
G03*
X10200500Y-7873000I-40000J0D01*
G01*
X10200500Y-8127000D02*
G75*
G03*
X10200500Y-8127000I-40000J0D01*
G01*
X10200500Y-8381000D02*
G75*
G03*
X10200500Y-8381000I-40000J0D01*
G01*
X10200500Y-8635000D02*
G75*
G03*
X10200500Y-8635000I-40000J0D01*
G01*
X10453500Y-9016000D02*
G75*
G03*
X10453500Y-9016000I-40000J0D01*
G01*
X10453500Y-9778000D02*
G75*
G03*
X10453500Y-9778000I-40000J0D01*
G01*
X10454000Y-10160000D02*
G75*
G03*
X10454000Y-10160000I-40000J0D01*
G01*
X10454500Y-2793000D02*
G75*
G03*
X10454500Y-2793000I-40000J0D01*
G01*
X10454500Y-3047000D02*
G75*
G03*
X10454500Y-3047000I-40000J0D01*
G01*
X10454500Y-3301000D02*
G75*
G03*
X10454500Y-3301000I-40000J0D01*
G01*
X10454500Y-3555000D02*
G75*
G03*
X10454500Y-3555000I-40000J0D01*
G01*
X10454500Y-3809000D02*
G75*
G03*
X10454500Y-3809000I-40000J0D01*
G01*
X10454500Y-4063000D02*
G75*
G03*
X10454500Y-4063000I-40000J0D01*
G01*
X10454500Y-4317000D02*
G75*
G03*
X10454500Y-4317000I-40000J0D01*
G01*
X10454500Y-4571000D02*
G75*
G03*
X10454500Y-4571000I-40000J0D01*
G01*
X10454500Y-4825000D02*
G75*
G03*
X10454500Y-4825000I-40000J0D01*
G01*
X10454500Y-5079000D02*
G75*
G03*
X10454500Y-5079000I-40000J0D01*
G01*
X10454500Y-5333000D02*
G75*
G03*
X10454500Y-5333000I-40000J0D01*
G01*
X10454500Y-5587000D02*
G75*
G03*
X10454500Y-5587000I-40000J0D01*
G01*
X10454500Y-5841000D02*
G75*
G03*
X10454500Y-5841000I-40000J0D01*
G01*
X10454500Y-6095000D02*
G75*
G03*
X10454500Y-6095000I-40000J0D01*
G01*
X10454500Y-6349000D02*
G75*
G03*
X10454500Y-6349000I-40000J0D01*
G01*
X10454500Y-6603000D02*
G75*
G03*
X10454500Y-6603000I-40000J0D01*
G01*
X10454500Y-6857000D02*
G75*
G03*
X10454500Y-6857000I-40000J0D01*
G01*
X10454500Y-7111000D02*
G75*
G03*
X10454500Y-7111000I-40000J0D01*
G01*
X10454500Y-7365000D02*
G75*
G03*
X10454500Y-7365000I-40000J0D01*
G01*
X10454500Y-7619000D02*
G75*
G03*
X10454500Y-7619000I-40000J0D01*
G01*
X10454500Y-7873000D02*
G75*
G03*
X10454500Y-7873000I-40000J0D01*
G01*
X10454500Y-8127000D02*
G75*
G03*
X10454500Y-8127000I-40000J0D01*
G01*
X10454500Y-8381000D02*
G75*
G03*
X10454500Y-8381000I-40000J0D01*
G01*
X10454500Y-8635000D02*
G75*
G03*
X10454500Y-8635000I-40000J0D01*
G01*
X10707500Y-9016000D02*
G75*
G03*
X10707500Y-9016000I-40000J0D01*
G01*
X10707500Y-9778000D02*
G75*
G03*
X10707500Y-9778000I-40000J0D01*
G01*
X10708000Y-10160000D02*
G75*
G03*
X10708000Y-10160000I-40000J0D01*
G01*
X10961500Y-9016000D02*
G75*
G03*
X10961500Y-9016000I-40000J0D01*
G01*
X10961500Y-9778000D02*
G75*
G03*
X10961500Y-9778000I-40000J0D01*
G01*
X11215500Y-9016000D02*
G75*
G03*
X11215500Y-9016000I-40000J0D01*
G01*
X11215500Y-9778000D02*
G75*
G03*
X11215500Y-9778000I-40000J0D01*
G01*
X11469500Y-9016000D02*
G75*
G03*
X11469500Y-9016000I-40000J0D01*
G01*
X11469500Y-9778000D02*
G75*
G03*
X11469500Y-9778000I-40000J0D01*
G01*
X11723500Y-9016000D02*
G75*
G03*
X11723500Y-9016000I-40000J0D01*
G01*
X11723500Y-9778000D02*
G75*
G03*
X11723500Y-9778000I-40000J0D01*
G01*
X11724000Y-10160000D02*
G75*
G03*
X11724000Y-10160000I-40000J0D01*
G01*
X11724500Y-2793000D02*
G75*
G03*
X11724500Y-2793000I-40000J0D01*
G01*
X11724500Y-3047000D02*
G75*
G03*
X11724500Y-3047000I-40000J0D01*
G01*
X11724500Y-3301000D02*
G75*
G03*
X11724500Y-3301000I-40000J0D01*
G01*
X11724500Y-3555000D02*
G75*
G03*
X11724500Y-3555000I-40000J0D01*
G01*
X11724500Y-3809000D02*
G75*
G03*
X11724500Y-3809000I-40000J0D01*
G01*
X11724500Y-4063000D02*
G75*
G03*
X11724500Y-4063000I-40000J0D01*
G01*
X11724500Y-4317000D02*
G75*
G03*
X11724500Y-4317000I-40000J0D01*
G01*
X11724500Y-4571000D02*
G75*
G03*
X11724500Y-4571000I-40000J0D01*
G01*
X11724500Y-4825000D02*
G75*
G03*
X11724500Y-4825000I-40000J0D01*
G01*
X11724500Y-5079000D02*
G75*
G03*
X11724500Y-5079000I-40000J0D01*
G01*
X11724500Y-5333000D02*
G75*
G03*
X11724500Y-5333000I-40000J0D01*
G01*
X11724500Y-5587000D02*
G75*
G03*
X11724500Y-5587000I-40000J0D01*
G01*
X11724500Y-5841000D02*
G75*
G03*
X11724500Y-5841000I-40000J0D01*
G01*
X11724500Y-6095000D02*
G75*
G03*
X11724500Y-6095000I-40000J0D01*
G01*
X11724500Y-6349000D02*
G75*
G03*
X11724500Y-6349000I-40000J0D01*
G01*
X11724500Y-6603000D02*
G75*
G03*
X11724500Y-6603000I-40000J0D01*
G01*
X11724500Y-6857000D02*
G75*
G03*
X11724500Y-6857000I-40000J0D01*
G01*
X11724500Y-7111000D02*
G75*
G03*
X11724500Y-7111000I-40000J0D01*
G01*
X11724500Y-7365000D02*
G75*
G03*
X11724500Y-7365000I-40000J0D01*
G01*
X11724500Y-7619000D02*
G75*
G03*
X11724500Y-7619000I-40000J0D01*
G01*
X11724500Y-7873000D02*
G75*
G03*
X11724500Y-7873000I-40000J0D01*
G01*
X11724500Y-8127000D02*
G75*
G03*
X11724500Y-8127000I-40000J0D01*
G01*
X11724500Y-8381000D02*
G75*
G03*
X11724500Y-8381000I-40000J0D01*
G01*
X11724500Y-8635000D02*
G75*
G03*
X11724500Y-8635000I-40000J0D01*
G01*
D14*
X8255000Y-9094000D02*
X8255000Y-9194000D01*
X8205000Y-9144000D02*
X8305000Y-9144000D01*
X8255000Y-9348000D02*
X8255000Y-9448000D01*
X8205000Y-9398000D02*
X8305000Y-9398000D01*
X8255000Y-9856000D02*
X8255000Y-9956000D01*
X8205000Y-9906000D02*
X8305000Y-9906000D01*
X8255000Y-10110000D02*
X8255000Y-10210000D01*
X8205000Y-10160000D02*
X8305000Y-10160000D01*
X8700000Y-10110000D02*
X8700000Y-10210000D01*
X8650000Y-10160000D02*
X8750000Y-10160000D01*
X8954000Y-10110000D02*
X8954000Y-10210000D01*
X8904000Y-10160000D02*
X9004000Y-10160000D01*
D11*
X8253619Y-10729476D02*
X8253619Y-10529476D01*
X8301238Y-10529476D01*
X8329809Y-10539000D01*
X8348857Y-10558048D01*
X8358381Y-10577095D01*
X8367905Y-10615190D01*
X8367905Y-10643762D01*
X8358381Y-10681857D01*
X8348857Y-10700905D01*
X8329809Y-10719952D01*
X8301238Y-10729476D01*
X8253619Y-10729476D01*
X8453619Y-10729476D02*
X8453619Y-10596143D01*
X8453619Y-10634238D02*
X8463143Y-10615190D01*
X8472667Y-10605667D01*
X8491714Y-10596143D01*
X8510762Y-10596143D01*
X8577429Y-10729476D02*
X8577429Y-10596143D01*
X8577429Y-10529476D02*
X8567905Y-10539000D01*
X8577429Y-10548524D01*
X8586952Y-10539000D01*
X8577429Y-10529476D01*
X8577429Y-10548524D01*
X8701238Y-10729476D02*
X8682190Y-10719952D01*
X8672667Y-10700905D01*
X8672667Y-10529476D01*
X8806000Y-10729476D02*
X8786952Y-10719952D01*
X8777429Y-10700905D01*
X8777429Y-10529476D01*
X9034571Y-10729476D02*
X9034571Y-10529476D01*
X9101238Y-10672333D01*
X9167905Y-10529476D01*
X9167905Y-10729476D01*
X9348857Y-10729476D02*
X9348857Y-10624714D01*
X9339333Y-10605667D01*
X9320286Y-10596143D01*
X9282190Y-10596143D01*
X9263143Y-10605667D01*
X9348857Y-10719952D02*
X9329810Y-10729476D01*
X9282190Y-10729476D01*
X9263143Y-10719952D01*
X9253619Y-10700905D01*
X9253619Y-10681857D01*
X9263143Y-10662810D01*
X9282190Y-10653286D01*
X9329810Y-10653286D01*
X9348857Y-10643762D01*
X9444095Y-10596143D02*
X9444095Y-10796143D01*
X9444095Y-10605667D02*
X9463143Y-10596143D01*
X9501238Y-10596143D01*
X9520286Y-10605667D01*
X9529810Y-10615190D01*
X9539333Y-10634238D01*
X9539333Y-10691381D01*
X9529810Y-10710429D01*
X9520286Y-10719952D01*
X9501238Y-10729476D01*
X9463143Y-10729476D01*
X9444095Y-10719952D01*
X9625048Y-10710429D02*
X9634571Y-10719952D01*
X9625048Y-10729476D01*
X9615524Y-10719952D01*
X9625048Y-10710429D01*
X9625048Y-10729476D01*
X9625048Y-10605667D02*
X9634571Y-10615190D01*
X9625048Y-10624714D01*
X9615524Y-10615190D01*
X9625048Y-10605667D01*
X9625048Y-10624714D01*
D12*
X7956000Y-11039000D02*
X7996000Y-11079000D01*
X7996000Y-11039000D02*
X7956000Y-11079000D01*
D11*
X8291714Y-10949476D02*
X8310762Y-10949476D01*
X8329809Y-10959000D01*
X8339333Y-10968524D01*
X8348857Y-10987571D01*
X8358381Y-11025667D01*
X8358381Y-11073286D01*
X8348857Y-11111381D01*
X8339333Y-11130429D01*
X8329809Y-11139952D01*
X8310762Y-11149476D01*
X8291714Y-11149476D01*
X8272667Y-11139952D01*
X8263143Y-11130429D01*
X8253619Y-11111381D01*
X8244095Y-11073286D01*
X8244095Y-11025667D01*
X8253619Y-10987571D01*
X8263143Y-10968524D01*
X8272667Y-10959000D01*
X8291714Y-10949476D01*
X8444095Y-11130429D02*
X8453619Y-11139952D01*
X8444095Y-11149476D01*
X8434571Y-11139952D01*
X8444095Y-11130429D01*
X8444095Y-11149476D01*
X8625048Y-11016143D02*
X8625048Y-11149476D01*
X8577429Y-10939952D02*
X8529810Y-11082810D01*
X8653619Y-11082810D01*
X8767905Y-10949476D02*
X8786952Y-10949476D01*
X8806000Y-10959000D01*
X8815524Y-10968524D01*
X8825048Y-10987571D01*
X8834571Y-11025667D01*
X8834571Y-11073286D01*
X8825048Y-11111381D01*
X8815524Y-11130429D01*
X8806000Y-11139952D01*
X8786952Y-11149476D01*
X8767905Y-11149476D01*
X8748857Y-11139952D01*
X8739333Y-11130429D01*
X8729810Y-11111381D01*
X8720286Y-11073286D01*
X8720286Y-11025667D01*
X8729810Y-10987571D01*
X8739333Y-10968524D01*
X8748857Y-10959000D01*
X8767905Y-10949476D01*
X8958381Y-10949476D02*
X8977429Y-10949476D01*
X8996476Y-10959000D01*
X9006000Y-10968524D01*
X9015524Y-10987571D01*
X9025048Y-11025667D01*
X9025048Y-11073286D01*
X9015524Y-11111381D01*
X9006000Y-11130429D01*
X8996476Y-11139952D01*
X8977429Y-11149476D01*
X8958381Y-11149476D01*
X8939333Y-11139952D01*
X8929810Y-11130429D01*
X8920286Y-11111381D01*
X8910762Y-11073286D01*
X8910762Y-11025667D01*
X8920286Y-10987571D01*
X8929810Y-10968524D01*
X8939333Y-10959000D01*
X8958381Y-10949476D01*
X9110762Y-11149476D02*
X9110762Y-11016143D01*
X9110762Y-11035190D02*
X9120286Y-11025667D01*
X9139333Y-11016143D01*
X9167905Y-11016143D01*
X9186952Y-11025667D01*
X9196476Y-11044714D01*
X9196476Y-11149476D01*
X9196476Y-11044714D02*
X9206000Y-11025667D01*
X9225048Y-11016143D01*
X9253619Y-11016143D01*
X9272667Y-11025667D01*
X9282190Y-11044714D01*
X9282190Y-11149476D01*
X9377429Y-11149476D02*
X9377429Y-11016143D01*
X9377429Y-11035190D02*
X9386952Y-11025667D01*
X9406000Y-11016143D01*
X9434571Y-11016143D01*
X9453619Y-11025667D01*
X9463143Y-11044714D01*
X9463143Y-11149476D01*
X9463143Y-11044714D02*
X9472667Y-11025667D01*
X9491714Y-11016143D01*
X9520286Y-11016143D01*
X9539333Y-11025667D01*
X9548857Y-11044714D01*
X9548857Y-11149476D01*
X9939333Y-10939952D02*
X9767905Y-11197095D01*
X10196476Y-10949476D02*
X10215524Y-10949476D01*
X10234571Y-10959000D01*
X10244095Y-10968524D01*
X10253619Y-10987571D01*
X10263143Y-11025667D01*
X10263143Y-11073286D01*
X10253619Y-11111381D01*
X10244095Y-11130429D01*
X10234571Y-11139952D01*
X10215524Y-11149476D01*
X10196476Y-11149476D01*
X10177429Y-11139952D01*
X10167905Y-11130429D01*
X10158381Y-11111381D01*
X10148857Y-11073286D01*
X10148857Y-11025667D01*
X10158381Y-10987571D01*
X10167905Y-10968524D01*
X10177429Y-10959000D01*
X10196476Y-10949476D01*
X10348857Y-11130429D02*
X10358381Y-11139952D01*
X10348857Y-11149476D01*
X10339333Y-11139952D01*
X10348857Y-11130429D01*
X10348857Y-11149476D01*
X10482190Y-10949476D02*
X10501238Y-10949476D01*
X10520286Y-10959000D01*
X10529810Y-10968524D01*
X10539333Y-10987571D01*
X10548857Y-11025667D01*
X10548857Y-11073286D01*
X10539333Y-11111381D01*
X10529810Y-11130429D01*
X10520286Y-11139952D01*
X10501238Y-11149476D01*
X10482190Y-11149476D01*
X10463143Y-11139952D01*
X10453619Y-11130429D01*
X10444095Y-11111381D01*
X10434571Y-11073286D01*
X10434571Y-11025667D01*
X10444095Y-10987571D01*
X10453619Y-10968524D01*
X10463143Y-10959000D01*
X10482190Y-10949476D01*
X10739333Y-11149476D02*
X10625048Y-11149476D01*
X10682190Y-11149476D02*
X10682190Y-10949476D01*
X10663143Y-10978048D01*
X10644095Y-10997095D01*
X10625048Y-11006619D01*
X10920286Y-10949476D02*
X10825048Y-10949476D01*
X10815524Y-11044714D01*
X10825048Y-11035190D01*
X10844095Y-11025667D01*
X10891714Y-11025667D01*
X10910762Y-11035190D01*
X10920286Y-11044714D01*
X10929810Y-11063762D01*
X10929810Y-11111381D01*
X10920286Y-11130429D01*
X10910762Y-11139952D01*
X10891714Y-11149476D01*
X10844095Y-11149476D01*
X10825048Y-11139952D01*
X10815524Y-11130429D01*
X10996476Y-10949476D02*
X11129810Y-10949476D01*
X11044095Y-11149476D01*
X11196476Y-10949476D02*
X11196476Y-10987571D01*
X11272667Y-10949476D02*
X11272667Y-10987571D01*
X11567905Y-11225667D02*
X11558381Y-11216143D01*
X11539333Y-11187571D01*
X11529809Y-11168524D01*
X11520286Y-11139952D01*
X11510762Y-11092333D01*
X11510762Y-11054238D01*
X11520286Y-11006619D01*
X11529809Y-10978048D01*
X11539333Y-10959000D01*
X11558381Y-10930429D01*
X11567905Y-10920905D01*
X11748857Y-11149476D02*
X11634571Y-11149476D01*
X11691714Y-11149476D02*
X11691714Y-10949476D01*
X11672667Y-10978048D01*
X11653619Y-10997095D01*
X11634571Y-11006619D01*
X11920286Y-11016143D02*
X11920286Y-11149476D01*
X11872667Y-10939952D02*
X11825048Y-11082810D01*
X11948857Y-11082810D01*
X12177428Y-11149476D02*
X12177428Y-10949476D01*
X12263143Y-11149476D02*
X12263143Y-11044714D01*
X12253619Y-11025667D01*
X12234571Y-11016143D01*
X12206000Y-11016143D01*
X12186952Y-11025667D01*
X12177428Y-11035190D01*
X12386952Y-11149476D02*
X12367905Y-11139952D01*
X12358381Y-11130429D01*
X12348857Y-11111381D01*
X12348857Y-11054238D01*
X12358381Y-11035190D01*
X12367905Y-11025667D01*
X12386952Y-11016143D01*
X12415524Y-11016143D01*
X12434571Y-11025667D01*
X12444095Y-11035190D01*
X12453619Y-11054238D01*
X12453619Y-11111381D01*
X12444095Y-11130429D01*
X12434571Y-11139952D01*
X12415524Y-11149476D01*
X12386952Y-11149476D01*
X12567905Y-11149476D02*
X12548857Y-11139952D01*
X12539333Y-11120905D01*
X12539333Y-10949476D01*
X12720286Y-11139952D02*
X12701238Y-11149476D01*
X12663143Y-11149476D01*
X12644095Y-11139952D01*
X12634571Y-11120905D01*
X12634571Y-11044714D01*
X12644095Y-11025667D01*
X12663143Y-11016143D01*
X12701238Y-11016143D01*
X12720286Y-11025667D01*
X12729809Y-11044714D01*
X12729809Y-11063762D01*
X12634571Y-11082810D01*
X12806000Y-11139952D02*
X12825048Y-11149476D01*
X12863143Y-11149476D01*
X12882190Y-11139952D01*
X12891714Y-11120905D01*
X12891714Y-11111381D01*
X12882190Y-11092333D01*
X12863143Y-11082810D01*
X12834571Y-11082810D01*
X12815524Y-11073286D01*
X12806000Y-11054238D01*
X12806000Y-11044714D01*
X12815524Y-11025667D01*
X12834571Y-11016143D01*
X12863143Y-11016143D01*
X12882190Y-11025667D01*
X12958381Y-11225667D02*
X12967905Y-11216143D01*
X12986952Y-11187571D01*
X12996476Y-11168524D01*
X13006000Y-11139952D01*
X13015524Y-11092333D01*
X13015524Y-11054238D01*
X13006000Y-11006619D01*
X12996476Y-10978048D01*
X12986952Y-10959000D01*
X12967905Y-10930429D01*
X12958381Y-10920905D01*
D13*
X7996000Y-11323000D02*
G75*
G03*
X7996000Y-11323000I-40000J0D01*
G01*
D11*
X8291714Y-11213476D02*
X8310762Y-11213476D01*
X8329809Y-11223000D01*
X8339333Y-11232524D01*
X8348857Y-11251571D01*
X8358381Y-11289667D01*
X8358381Y-11337286D01*
X8348857Y-11375381D01*
X8339333Y-11394428D01*
X8329809Y-11403952D01*
X8310762Y-11413476D01*
X8291714Y-11413476D01*
X8272667Y-11403952D01*
X8263143Y-11394428D01*
X8253619Y-11375381D01*
X8244095Y-11337286D01*
X8244095Y-11289667D01*
X8253619Y-11251571D01*
X8263143Y-11232524D01*
X8272667Y-11223000D01*
X8291714Y-11213476D01*
X8444095Y-11394428D02*
X8453619Y-11403952D01*
X8444095Y-11413476D01*
X8434571Y-11403952D01*
X8444095Y-11394428D01*
X8444095Y-11413476D01*
X8567905Y-11299190D02*
X8548857Y-11289667D01*
X8539333Y-11280143D01*
X8529810Y-11261095D01*
X8529810Y-11251571D01*
X8539333Y-11232524D01*
X8548857Y-11223000D01*
X8567905Y-11213476D01*
X8606000Y-11213476D01*
X8625048Y-11223000D01*
X8634571Y-11232524D01*
X8644095Y-11251571D01*
X8644095Y-11261095D01*
X8634571Y-11280143D01*
X8625048Y-11289667D01*
X8606000Y-11299190D01*
X8567905Y-11299190D01*
X8548857Y-11308714D01*
X8539333Y-11318238D01*
X8529810Y-11337286D01*
X8529810Y-11375381D01*
X8539333Y-11394428D01*
X8548857Y-11403952D01*
X8567905Y-11413476D01*
X8606000Y-11413476D01*
X8625048Y-11403952D01*
X8634571Y-11394428D01*
X8644095Y-11375381D01*
X8644095Y-11337286D01*
X8634571Y-11318238D01*
X8625048Y-11308714D01*
X8606000Y-11299190D01*
X8767905Y-11213476D02*
X8786952Y-11213476D01*
X8806000Y-11223000D01*
X8815524Y-11232524D01*
X8825048Y-11251571D01*
X8834571Y-11289667D01*
X8834571Y-11337286D01*
X8825048Y-11375381D01*
X8815524Y-11394428D01*
X8806000Y-11403952D01*
X8786952Y-11413476D01*
X8767905Y-11413476D01*
X8748857Y-11403952D01*
X8739333Y-11394428D01*
X8729810Y-11375381D01*
X8720286Y-11337286D01*
X8720286Y-11289667D01*
X8729810Y-11251571D01*
X8739333Y-11232524D01*
X8748857Y-11223000D01*
X8767905Y-11213476D01*
X8958381Y-11213476D02*
X8977429Y-11213476D01*
X8996476Y-11223000D01*
X9006000Y-11232524D01*
X9015524Y-11251571D01*
X9025048Y-11289667D01*
X9025048Y-11337286D01*
X9015524Y-11375381D01*
X9006000Y-11394428D01*
X8996476Y-11403952D01*
X8977429Y-11413476D01*
X8958381Y-11413476D01*
X8939333Y-11403952D01*
X8929810Y-11394428D01*
X8920286Y-11375381D01*
X8910762Y-11337286D01*
X8910762Y-11289667D01*
X8920286Y-11251571D01*
X8929810Y-11232524D01*
X8939333Y-11223000D01*
X8958381Y-11213476D01*
X9110762Y-11413476D02*
X9110762Y-11280143D01*
X9110762Y-11299190D02*
X9120286Y-11289667D01*
X9139333Y-11280143D01*
X9167905Y-11280143D01*
X9186952Y-11289667D01*
X9196476Y-11308714D01*
X9196476Y-11413476D01*
X9196476Y-11308714D02*
X9206000Y-11289667D01*
X9225048Y-11280143D01*
X9253619Y-11280143D01*
X9272667Y-11289667D01*
X9282190Y-11308714D01*
X9282190Y-11413476D01*
X9377429Y-11413476D02*
X9377429Y-11280143D01*
X9377429Y-11299190D02*
X9386952Y-11289667D01*
X9406000Y-11280143D01*
X9434571Y-11280143D01*
X9453619Y-11289667D01*
X9463143Y-11308714D01*
X9463143Y-11413476D01*
X9463143Y-11308714D02*
X9472667Y-11289667D01*
X9491714Y-11280143D01*
X9520286Y-11280143D01*
X9539333Y-11289667D01*
X9548857Y-11308714D01*
X9548857Y-11413476D01*
X9939333Y-11203952D02*
X9767905Y-11461095D01*
X10196476Y-11213476D02*
X10215524Y-11213476D01*
X10234571Y-11223000D01*
X10244095Y-11232524D01*
X10253619Y-11251571D01*
X10263143Y-11289667D01*
X10263143Y-11337286D01*
X10253619Y-11375381D01*
X10244095Y-11394428D01*
X10234571Y-11403952D01*
X10215524Y-11413476D01*
X10196476Y-11413476D01*
X10177429Y-11403952D01*
X10167905Y-11394428D01*
X10158381Y-11375381D01*
X10148857Y-11337286D01*
X10148857Y-11289667D01*
X10158381Y-11251571D01*
X10167905Y-11232524D01*
X10177429Y-11223000D01*
X10196476Y-11213476D01*
X10348857Y-11394428D02*
X10358381Y-11403952D01*
X10348857Y-11413476D01*
X10339333Y-11403952D01*
X10348857Y-11394428D01*
X10348857Y-11413476D01*
X10482190Y-11213476D02*
X10501238Y-11213476D01*
X10520286Y-11223000D01*
X10529810Y-11232524D01*
X10539333Y-11251571D01*
X10548857Y-11289667D01*
X10548857Y-11337286D01*
X10539333Y-11375381D01*
X10529810Y-11394428D01*
X10520286Y-11403952D01*
X10501238Y-11413476D01*
X10482190Y-11413476D01*
X10463143Y-11403952D01*
X10453619Y-11394428D01*
X10444095Y-11375381D01*
X10434571Y-11337286D01*
X10434571Y-11289667D01*
X10444095Y-11251571D01*
X10453619Y-11232524D01*
X10463143Y-11223000D01*
X10482190Y-11213476D01*
X10615524Y-11213476D02*
X10739333Y-11213476D01*
X10672667Y-11289667D01*
X10701238Y-11289667D01*
X10720286Y-11299190D01*
X10729810Y-11308714D01*
X10739333Y-11327762D01*
X10739333Y-11375381D01*
X10729810Y-11394428D01*
X10720286Y-11403952D01*
X10701238Y-11413476D01*
X10644095Y-11413476D01*
X10625048Y-11403952D01*
X10615524Y-11394428D01*
X10929810Y-11413476D02*
X10815524Y-11413476D01*
X10872667Y-11413476D02*
X10872667Y-11213476D01*
X10853619Y-11242048D01*
X10834571Y-11261095D01*
X10815524Y-11270619D01*
X11110762Y-11213476D02*
X11015524Y-11213476D01*
X11006000Y-11308714D01*
X11015524Y-11299190D01*
X11034571Y-11289667D01*
X11082190Y-11289667D01*
X11101238Y-11299190D01*
X11110762Y-11308714D01*
X11120286Y-11327762D01*
X11120286Y-11375381D01*
X11110762Y-11394428D01*
X11101238Y-11403952D01*
X11082190Y-11413476D01*
X11034571Y-11413476D01*
X11015524Y-11403952D01*
X11006000Y-11394428D01*
X11196476Y-11213476D02*
X11196476Y-11251571D01*
X11272667Y-11213476D02*
X11272667Y-11251571D01*
X11567905Y-11489667D02*
X11558381Y-11480143D01*
X11539333Y-11451571D01*
X11529809Y-11432524D01*
X11520286Y-11403952D01*
X11510762Y-11356333D01*
X11510762Y-11318238D01*
X11520286Y-11270619D01*
X11529809Y-11242048D01*
X11539333Y-11223000D01*
X11558381Y-11194428D01*
X11567905Y-11184905D01*
X11748857Y-11413476D02*
X11634571Y-11413476D01*
X11691714Y-11413476D02*
X11691714Y-11213476D01*
X11672667Y-11242048D01*
X11653619Y-11261095D01*
X11634571Y-11270619D01*
X11815524Y-11213476D02*
X11948857Y-11213476D01*
X11863143Y-11413476D01*
X12015524Y-11232524D02*
X12025048Y-11223000D01*
X12044095Y-11213476D01*
X12091714Y-11213476D01*
X12110762Y-11223000D01*
X12120286Y-11232524D01*
X12129809Y-11251571D01*
X12129809Y-11270619D01*
X12120286Y-11299190D01*
X12006000Y-11413476D01*
X12129809Y-11413476D01*
X12367905Y-11413476D02*
X12367905Y-11213476D01*
X12453619Y-11413476D02*
X12453619Y-11308714D01*
X12444095Y-11289667D01*
X12425048Y-11280143D01*
X12396476Y-11280143D01*
X12377428Y-11289667D01*
X12367905Y-11299190D01*
X12577428Y-11413476D02*
X12558381Y-11403952D01*
X12548857Y-11394428D01*
X12539333Y-11375381D01*
X12539333Y-11318238D01*
X12548857Y-11299190D01*
X12558381Y-11289667D01*
X12577428Y-11280143D01*
X12606000Y-11280143D01*
X12625048Y-11289667D01*
X12634571Y-11299190D01*
X12644095Y-11318238D01*
X12644095Y-11375381D01*
X12634571Y-11394428D01*
X12625048Y-11403952D01*
X12606000Y-11413476D01*
X12577428Y-11413476D01*
X12758381Y-11413476D02*
X12739333Y-11403952D01*
X12729809Y-11384905D01*
X12729809Y-11213476D01*
X12910762Y-11403952D02*
X12891714Y-11413476D01*
X12853619Y-11413476D01*
X12834571Y-11403952D01*
X12825048Y-11384905D01*
X12825048Y-11308714D01*
X12834571Y-11289667D01*
X12853619Y-11280143D01*
X12891714Y-11280143D01*
X12910762Y-11289667D01*
X12920286Y-11308714D01*
X12920286Y-11327762D01*
X12825048Y-11346809D01*
X12996476Y-11403952D02*
X13015524Y-11413476D01*
X13053619Y-11413476D01*
X13072667Y-11403952D01*
X13082190Y-11384905D01*
X13082190Y-11375381D01*
X13072667Y-11356333D01*
X13053619Y-11346809D01*
X13025048Y-11346809D01*
X13006000Y-11337286D01*
X12996476Y-11318238D01*
X12996476Y-11308714D01*
X13006000Y-11289667D01*
X13025048Y-11280143D01*
X13053619Y-11280143D01*
X13072667Y-11289667D01*
X13148857Y-11489667D02*
X13158381Y-11480143D01*
X13177428Y-11451571D01*
X13186952Y-11432524D01*
X13196476Y-11403952D01*
X13206000Y-11356333D01*
X13206000Y-11318238D01*
X13196476Y-11270619D01*
X13186952Y-11242048D01*
X13177428Y-11223000D01*
X13158381Y-11194428D01*
X13148857Y-11184905D01*
D14*
X7946000Y-11537000D02*
X7946000Y-11637000D01*
X7896000Y-11587000D02*
X7996000Y-11587000D01*
D11*
X8358381Y-11677476D02*
X8244095Y-11677476D01*
X8301238Y-11677476D02*
X8301238Y-11477476D01*
X8282190Y-11506048D01*
X8263143Y-11525095D01*
X8244095Y-11534619D01*
X8444095Y-11658428D02*
X8453619Y-11667952D01*
X8444095Y-11677476D01*
X8434571Y-11667952D01*
X8444095Y-11658428D01*
X8444095Y-11677476D01*
X8577429Y-11477476D02*
X8596476Y-11477476D01*
X8615524Y-11487000D01*
X8625048Y-11496524D01*
X8634571Y-11515571D01*
X8644095Y-11553667D01*
X8644095Y-11601286D01*
X8634571Y-11639381D01*
X8625048Y-11658428D01*
X8615524Y-11667952D01*
X8596476Y-11677476D01*
X8577429Y-11677476D01*
X8558381Y-11667952D01*
X8548857Y-11658428D01*
X8539333Y-11639381D01*
X8529810Y-11601286D01*
X8529810Y-11553667D01*
X8539333Y-11515571D01*
X8548857Y-11496524D01*
X8558381Y-11487000D01*
X8577429Y-11477476D01*
X8767905Y-11477476D02*
X8786952Y-11477476D01*
X8806000Y-11487000D01*
X8815524Y-11496524D01*
X8825048Y-11515571D01*
X8834571Y-11553667D01*
X8834571Y-11601286D01*
X8825048Y-11639381D01*
X8815524Y-11658428D01*
X8806000Y-11667952D01*
X8786952Y-11677476D01*
X8767905Y-11677476D01*
X8748857Y-11667952D01*
X8739333Y-11658428D01*
X8729810Y-11639381D01*
X8720286Y-11601286D01*
X8720286Y-11553667D01*
X8729810Y-11515571D01*
X8739333Y-11496524D01*
X8748857Y-11487000D01*
X8767905Y-11477476D01*
X8958381Y-11477476D02*
X8977429Y-11477476D01*
X8996476Y-11487000D01*
X9006000Y-11496524D01*
X9015524Y-11515571D01*
X9025048Y-11553667D01*
X9025048Y-11601286D01*
X9015524Y-11639381D01*
X9006000Y-11658428D01*
X8996476Y-11667952D01*
X8977429Y-11677476D01*
X8958381Y-11677476D01*
X8939333Y-11667952D01*
X8929810Y-11658428D01*
X8920286Y-11639381D01*
X8910762Y-11601286D01*
X8910762Y-11553667D01*
X8920286Y-11515571D01*
X8929810Y-11496524D01*
X8939333Y-11487000D01*
X8958381Y-11477476D01*
X9110762Y-11677476D02*
X9110762Y-11544143D01*
X9110762Y-11563190D02*
X9120286Y-11553667D01*
X9139333Y-11544143D01*
X9167905Y-11544143D01*
X9186952Y-11553667D01*
X9196476Y-11572714D01*
X9196476Y-11677476D01*
X9196476Y-11572714D02*
X9206000Y-11553667D01*
X9225048Y-11544143D01*
X9253619Y-11544143D01*
X9272667Y-11553667D01*
X9282190Y-11572714D01*
X9282190Y-11677476D01*
X9377429Y-11677476D02*
X9377429Y-11544143D01*
X9377429Y-11563190D02*
X9386952Y-11553667D01*
X9406000Y-11544143D01*
X9434571Y-11544143D01*
X9453619Y-11553667D01*
X9463143Y-11572714D01*
X9463143Y-11677476D01*
X9463143Y-11572714D02*
X9472667Y-11553667D01*
X9491714Y-11544143D01*
X9520286Y-11544143D01*
X9539333Y-11553667D01*
X9548857Y-11572714D01*
X9548857Y-11677476D01*
X9939333Y-11467952D02*
X9767905Y-11725095D01*
X10196476Y-11477476D02*
X10215524Y-11477476D01*
X10234571Y-11487000D01*
X10244095Y-11496524D01*
X10253619Y-11515571D01*
X10263143Y-11553667D01*
X10263143Y-11601286D01*
X10253619Y-11639381D01*
X10244095Y-11658428D01*
X10234571Y-11667952D01*
X10215524Y-11677476D01*
X10196476Y-11677476D01*
X10177429Y-11667952D01*
X10167905Y-11658428D01*
X10158381Y-11639381D01*
X10148857Y-11601286D01*
X10148857Y-11553667D01*
X10158381Y-11515571D01*
X10167905Y-11496524D01*
X10177429Y-11487000D01*
X10196476Y-11477476D01*
X10348857Y-11658428D02*
X10358381Y-11667952D01*
X10348857Y-11677476D01*
X10339333Y-11667952D01*
X10348857Y-11658428D01*
X10348857Y-11677476D01*
X10482190Y-11477476D02*
X10501238Y-11477476D01*
X10520286Y-11487000D01*
X10529810Y-11496524D01*
X10539333Y-11515571D01*
X10548857Y-11553667D01*
X10548857Y-11601286D01*
X10539333Y-11639381D01*
X10529810Y-11658428D01*
X10520286Y-11667952D01*
X10501238Y-11677476D01*
X10482190Y-11677476D01*
X10463143Y-11667952D01*
X10453619Y-11658428D01*
X10444095Y-11639381D01*
X10434571Y-11601286D01*
X10434571Y-11553667D01*
X10444095Y-11515571D01*
X10453619Y-11496524D01*
X10463143Y-11487000D01*
X10482190Y-11477476D01*
X10615524Y-11477476D02*
X10739333Y-11477476D01*
X10672667Y-11553667D01*
X10701238Y-11553667D01*
X10720286Y-11563190D01*
X10729810Y-11572714D01*
X10739333Y-11591762D01*
X10739333Y-11639381D01*
X10729810Y-11658428D01*
X10720286Y-11667952D01*
X10701238Y-11677476D01*
X10644095Y-11677476D01*
X10625048Y-11667952D01*
X10615524Y-11658428D01*
X10834571Y-11677476D02*
X10872667Y-11677476D01*
X10891714Y-11667952D01*
X10901238Y-11658428D01*
X10920286Y-11629857D01*
X10929810Y-11591762D01*
X10929810Y-11515571D01*
X10920286Y-11496524D01*
X10910762Y-11487000D01*
X10891714Y-11477476D01*
X10853619Y-11477476D01*
X10834571Y-11487000D01*
X10825048Y-11496524D01*
X10815524Y-11515571D01*
X10815524Y-11563190D01*
X10825048Y-11582238D01*
X10834571Y-11591762D01*
X10853619Y-11601286D01*
X10891714Y-11601286D01*
X10910762Y-11591762D01*
X10920286Y-11582238D01*
X10929810Y-11563190D01*
X11101238Y-11544143D02*
X11101238Y-11677476D01*
X11053619Y-11467952D02*
X11006000Y-11610809D01*
X11129810Y-11610809D01*
X11196476Y-11477476D02*
X11196476Y-11515571D01*
X11272667Y-11477476D02*
X11272667Y-11515571D01*
X11567905Y-11753667D02*
X11558381Y-11744143D01*
X11539333Y-11715571D01*
X11529809Y-11696524D01*
X11520286Y-11667952D01*
X11510762Y-11620333D01*
X11510762Y-11582238D01*
X11520286Y-11534619D01*
X11529809Y-11506048D01*
X11539333Y-11487000D01*
X11558381Y-11458428D01*
X11567905Y-11448905D01*
X11729809Y-11477476D02*
X11691714Y-11477476D01*
X11672667Y-11487000D01*
X11663143Y-11496524D01*
X11644095Y-11525095D01*
X11634571Y-11563190D01*
X11634571Y-11639381D01*
X11644095Y-11658428D01*
X11653619Y-11667952D01*
X11672667Y-11677476D01*
X11710762Y-11677476D01*
X11729809Y-11667952D01*
X11739333Y-11658428D01*
X11748857Y-11639381D01*
X11748857Y-11591762D01*
X11739333Y-11572714D01*
X11729809Y-11563190D01*
X11710762Y-11553667D01*
X11672667Y-11553667D01*
X11653619Y-11563190D01*
X11644095Y-11572714D01*
X11634571Y-11591762D01*
X11986952Y-11677476D02*
X11986952Y-11477476D01*
X12072667Y-11677476D02*
X12072667Y-11572714D01*
X12063143Y-11553667D01*
X12044095Y-11544143D01*
X12015524Y-11544143D01*
X11996476Y-11553667D01*
X11986952Y-11563190D01*
X12196476Y-11677476D02*
X12177428Y-11667952D01*
X12167905Y-11658428D01*
X12158381Y-11639381D01*
X12158381Y-11582238D01*
X12167905Y-11563190D01*
X12177428Y-11553667D01*
X12196476Y-11544143D01*
X12225048Y-11544143D01*
X12244095Y-11553667D01*
X12253619Y-11563190D01*
X12263143Y-11582238D01*
X12263143Y-11639381D01*
X12253619Y-11658428D01*
X12244095Y-11667952D01*
X12225048Y-11677476D01*
X12196476Y-11677476D01*
X12377428Y-11677476D02*
X12358381Y-11667952D01*
X12348857Y-11648905D01*
X12348857Y-11477476D01*
X12529809Y-11667952D02*
X12510762Y-11677476D01*
X12472667Y-11677476D01*
X12453619Y-11667952D01*
X12444095Y-11648905D01*
X12444095Y-11572714D01*
X12453619Y-11553667D01*
X12472667Y-11544143D01*
X12510762Y-11544143D01*
X12529809Y-11553667D01*
X12539333Y-11572714D01*
X12539333Y-11591762D01*
X12444095Y-11610809D01*
X12615524Y-11667952D02*
X12634571Y-11677476D01*
X12672667Y-11677476D01*
X12691714Y-11667952D01*
X12701238Y-11648905D01*
X12701238Y-11639381D01*
X12691714Y-11620333D01*
X12672667Y-11610809D01*
X12644095Y-11610809D01*
X12625048Y-11601286D01*
X12615524Y-11582238D01*
X12615524Y-11572714D01*
X12625048Y-11553667D01*
X12644095Y-11544143D01*
X12672667Y-11544143D01*
X12691714Y-11553667D01*
X12767905Y-11753667D02*
X12777428Y-11744143D01*
X12796476Y-11715571D01*
X12806000Y-11696524D01*
X12815524Y-11667952D01*
X12825048Y-11620333D01*
X12825048Y-11582238D01*
X12815524Y-11534619D01*
X12806000Y-11506048D01*
X12796476Y-11487000D01*
X12777428Y-11458428D01*
X12767905Y-11448905D01*
M02*
