G04 #@! TF.GenerationSoftware,KiCad,Pcbnew,(6.0.5)*
G04 #@! TF.CreationDate,2022-07-17T20:37:41+02:00*
G04 #@! TF.ProjectId,c128-mmu-exp,63313238-2d6d-46d7-952d-6578702e6b69,rev?*
G04 #@! TF.SameCoordinates,Original*
G04 #@! TF.FileFunction,Legend,Bot*
G04 #@! TF.FilePolarity,Positive*
%FSLAX46Y46*%
G04 Gerber Fmt 4.6, Leading zero omitted, Abs format (unit mm)*
G04 Created by KiCad (PCBNEW (6.0.5)) date 2022-07-17 20:37:41*
%MOMM*%
%LPD*%
G01*
G04 APERTURE LIST*
%ADD10C,0.150000*%
%ADD11C,1.600000*%
%ADD12O,1.600000X1.600000*%
%ADD13R,1.700000X1.700000*%
%ADD14O,1.700000X1.700000*%
%ADD15R,1.600000X1.600000*%
G04 APERTURE END LIST*
D10*
X110042142Y-43634285D02*
X110089761Y-43586666D01*
X110137380Y-43443809D01*
X110137380Y-43348571D01*
X110089761Y-43205714D01*
X109994523Y-43110476D01*
X109899285Y-43062857D01*
X109708809Y-43015238D01*
X109565952Y-43015238D01*
X109375476Y-43062857D01*
X109280238Y-43110476D01*
X109185000Y-43205714D01*
X109137380Y-43348571D01*
X109137380Y-43443809D01*
X109185000Y-43586666D01*
X109232619Y-43634285D01*
X110137380Y-44586666D02*
X110137380Y-44015238D01*
X110137380Y-44300952D02*
X109137380Y-44300952D01*
X109280238Y-44205714D01*
X109375476Y-44110476D01*
X109423095Y-44015238D01*
X109232619Y-44967619D02*
X109185000Y-45015238D01*
X109137380Y-45110476D01*
X109137380Y-45348571D01*
X109185000Y-45443809D01*
X109232619Y-45491428D01*
X109327857Y-45539047D01*
X109423095Y-45539047D01*
X109565952Y-45491428D01*
X110137380Y-44919999D01*
X110137380Y-45539047D01*
X109565952Y-46110476D02*
X109518333Y-46015238D01*
X109470714Y-45967619D01*
X109375476Y-45919999D01*
X109327857Y-45919999D01*
X109232619Y-45967619D01*
X109185000Y-46015238D01*
X109137380Y-46110476D01*
X109137380Y-46300952D01*
X109185000Y-46396190D01*
X109232619Y-46443809D01*
X109327857Y-46491428D01*
X109375476Y-46491428D01*
X109470714Y-46443809D01*
X109518333Y-46396190D01*
X109565952Y-46300952D01*
X109565952Y-46110476D01*
X109613571Y-46015238D01*
X109661190Y-45967619D01*
X109756428Y-45919999D01*
X109946904Y-45919999D01*
X110042142Y-45967619D01*
X110089761Y-46015238D01*
X110137380Y-46110476D01*
X110137380Y-46300952D01*
X110089761Y-46396190D01*
X110042142Y-46443809D01*
X109946904Y-46491428D01*
X109756428Y-46491428D01*
X109661190Y-46443809D01*
X109613571Y-46396190D01*
X109565952Y-46300952D01*
X110137380Y-46919999D02*
X109137380Y-46919999D01*
X109137380Y-47158095D01*
X109185000Y-47300952D01*
X109280238Y-47396190D01*
X109375476Y-47443809D01*
X109565952Y-47491428D01*
X109708809Y-47491428D01*
X109899285Y-47443809D01*
X109994523Y-47396190D01*
X110089761Y-47300952D01*
X110137380Y-47158095D01*
X110137380Y-46919999D01*
X110042142Y-48491428D02*
X110089761Y-48443809D01*
X110137380Y-48300952D01*
X110137380Y-48205714D01*
X110089761Y-48062857D01*
X109994523Y-47967619D01*
X109899285Y-47919999D01*
X109708809Y-47872380D01*
X109565952Y-47872380D01*
X109375476Y-47919999D01*
X109280238Y-47967619D01*
X109185000Y-48062857D01*
X109137380Y-48205714D01*
X109137380Y-48300952D01*
X109185000Y-48443809D01*
X109232619Y-48491428D01*
X110137380Y-49491428D02*
X109661190Y-49158095D01*
X110137380Y-48919999D02*
X109137380Y-48919999D01*
X109137380Y-49300952D01*
X109185000Y-49396190D01*
X109232619Y-49443809D01*
X109327857Y-49491428D01*
X109470714Y-49491428D01*
X109565952Y-49443809D01*
X109613571Y-49396190D01*
X109661190Y-49300952D01*
X109661190Y-48919999D01*
X109232619Y-50634285D02*
X109185000Y-50681904D01*
X109137380Y-50777142D01*
X109137380Y-51015238D01*
X109185000Y-51110476D01*
X109232619Y-51158095D01*
X109327857Y-51205714D01*
X109423095Y-51205714D01*
X109565952Y-51158095D01*
X110137380Y-50586666D01*
X110137380Y-51205714D01*
X109137380Y-52110476D02*
X109137380Y-51634285D01*
X109613571Y-51586666D01*
X109565952Y-51634285D01*
X109518333Y-51729523D01*
X109518333Y-51967619D01*
X109565952Y-52062857D01*
X109613571Y-52110476D01*
X109708809Y-52158095D01*
X109946904Y-52158095D01*
X110042142Y-52110476D01*
X110089761Y-52062857D01*
X110137380Y-51967619D01*
X110137380Y-51729523D01*
X110089761Y-51634285D01*
X110042142Y-51586666D01*
X109137380Y-53015238D02*
X109137380Y-52824761D01*
X109185000Y-52729523D01*
X109232619Y-52681904D01*
X109375476Y-52586666D01*
X109565952Y-52539047D01*
X109946904Y-52539047D01*
X110042142Y-52586666D01*
X110089761Y-52634285D01*
X110137380Y-52729523D01*
X110137380Y-52919999D01*
X110089761Y-53015238D01*
X110042142Y-53062857D01*
X109946904Y-53110476D01*
X109708809Y-53110476D01*
X109613571Y-53062857D01*
X109565952Y-53015238D01*
X109518333Y-52919999D01*
X109518333Y-52729523D01*
X109565952Y-52634285D01*
X109613571Y-52586666D01*
X109708809Y-52539047D01*
X110137380Y-53539047D02*
X109137380Y-53539047D01*
X110137380Y-54110476D02*
X109565952Y-53681904D01*
X109137380Y-54110476D02*
X109708809Y-53539047D01*
X110137380Y-55300952D02*
X109137380Y-55300952D01*
X109851666Y-55634285D01*
X109137380Y-55967619D01*
X110137380Y-55967619D01*
X110137380Y-56443809D02*
X109137380Y-56443809D01*
X109851666Y-56777142D01*
X109137380Y-57110476D01*
X110137380Y-57110476D01*
X109137380Y-57586666D02*
X109946904Y-57586666D01*
X110042142Y-57634285D01*
X110089761Y-57681904D01*
X110137380Y-57777142D01*
X110137380Y-57967619D01*
X110089761Y-58062857D01*
X110042142Y-58110476D01*
X109946904Y-58158095D01*
X109137380Y-58158095D01*
X109613571Y-59396190D02*
X109613571Y-59729523D01*
X110137380Y-59872380D02*
X110137380Y-59396190D01*
X109137380Y-59396190D01*
X109137380Y-59872380D01*
X110137380Y-60205714D02*
X109470714Y-60729523D01*
X109470714Y-60205714D02*
X110137380Y-60729523D01*
X109470714Y-61110476D02*
X110470714Y-61110476D01*
X109518333Y-61110476D02*
X109470714Y-61205714D01*
X109470714Y-61396190D01*
X109518333Y-61491428D01*
X109565952Y-61539047D01*
X109661190Y-61586666D01*
X109946904Y-61586666D01*
X110042142Y-61539047D01*
X110089761Y-61491428D01*
X110137380Y-61396190D01*
X110137380Y-61205714D01*
X110089761Y-61110476D01*
X110137380Y-62443809D02*
X109613571Y-62443809D01*
X109518333Y-62396190D01*
X109470714Y-62300952D01*
X109470714Y-62110476D01*
X109518333Y-62015238D01*
X110089761Y-62443809D02*
X110137380Y-62348571D01*
X110137380Y-62110476D01*
X110089761Y-62015238D01*
X109994523Y-61967619D01*
X109899285Y-61967619D01*
X109804047Y-62015238D01*
X109756428Y-62110476D01*
X109756428Y-62348571D01*
X109708809Y-62443809D01*
X109470714Y-62919999D02*
X110137380Y-62919999D01*
X109565952Y-62919999D02*
X109518333Y-62967619D01*
X109470714Y-63062857D01*
X109470714Y-63205714D01*
X109518333Y-63300952D01*
X109613571Y-63348571D01*
X110137380Y-63348571D01*
X110089761Y-63777142D02*
X110137380Y-63872380D01*
X110137380Y-64062857D01*
X110089761Y-64158095D01*
X109994523Y-64205714D01*
X109946904Y-64205714D01*
X109851666Y-64158095D01*
X109804047Y-64062857D01*
X109804047Y-63919999D01*
X109756428Y-63824761D01*
X109661190Y-63777142D01*
X109613571Y-63777142D01*
X109518333Y-63824761D01*
X109470714Y-63919999D01*
X109470714Y-64062857D01*
X109518333Y-64158095D01*
X110137380Y-64634285D02*
X109470714Y-64634285D01*
X109137380Y-64634285D02*
X109185000Y-64586666D01*
X109232619Y-64634285D01*
X109185000Y-64681904D01*
X109137380Y-64634285D01*
X109232619Y-64634285D01*
X110137380Y-65253333D02*
X110089761Y-65158095D01*
X110042142Y-65110476D01*
X109946904Y-65062857D01*
X109661190Y-65062857D01*
X109565952Y-65110476D01*
X109518333Y-65158095D01*
X109470714Y-65253333D01*
X109470714Y-65396190D01*
X109518333Y-65491428D01*
X109565952Y-65539047D01*
X109661190Y-65586666D01*
X109946904Y-65586666D01*
X110042142Y-65539047D01*
X110089761Y-65491428D01*
X110137380Y-65396190D01*
X110137380Y-65253333D01*
X109470714Y-66015238D02*
X110137380Y-66015238D01*
X109565952Y-66015238D02*
X109518333Y-66062857D01*
X109470714Y-66158095D01*
X109470714Y-66300952D01*
X109518333Y-66396190D01*
X109613571Y-66443809D01*
X110137380Y-66443809D01*
X109185000Y-68205714D02*
X109137380Y-68110476D01*
X109137380Y-67967619D01*
X109185000Y-67824761D01*
X109280238Y-67729523D01*
X109375476Y-67681904D01*
X109565952Y-67634285D01*
X109708809Y-67634285D01*
X109899285Y-67681904D01*
X109994523Y-67729523D01*
X110089761Y-67824761D01*
X110137380Y-67967619D01*
X110137380Y-68062857D01*
X110089761Y-68205714D01*
X110042142Y-68253333D01*
X109708809Y-68253333D01*
X109708809Y-68062857D01*
X109851666Y-68634285D02*
X109851666Y-69110476D01*
X110137380Y-68539047D02*
X109137380Y-68872380D01*
X110137380Y-69205714D01*
X110137380Y-70015238D02*
X110137380Y-69539047D01*
X109137380Y-69539047D01*
X109470714Y-71015238D02*
X110137380Y-71253333D01*
X109470714Y-71491428D01*
X110137380Y-72396190D02*
X110137380Y-71824761D01*
X110137380Y-72110476D02*
X109137380Y-72110476D01*
X109280238Y-72015238D01*
X109375476Y-71919999D01*
X109423095Y-71824761D01*
X110042142Y-72824761D02*
X110089761Y-72872380D01*
X110137380Y-72824761D01*
X110089761Y-72777142D01*
X110042142Y-72824761D01*
X110137380Y-72824761D01*
X109137380Y-73491428D02*
X109137380Y-73586666D01*
X109185000Y-73681904D01*
X109232619Y-73729523D01*
X109327857Y-73777142D01*
X109518333Y-73824761D01*
X109756428Y-73824761D01*
X109946904Y-73777142D01*
X110042142Y-73729523D01*
X110089761Y-73681904D01*
X110137380Y-73586666D01*
X110137380Y-73491428D01*
X110089761Y-73396190D01*
X110042142Y-73348571D01*
X109946904Y-73300952D01*
X109756428Y-73253333D01*
X109518333Y-73253333D01*
X109327857Y-73300952D01*
X109232619Y-73348571D01*
X109185000Y-73396190D01*
X109137380Y-73491428D01*
X111747380Y-41396190D02*
X110747380Y-41396190D01*
X111461666Y-41729523D01*
X110747380Y-42062857D01*
X111747380Y-42062857D01*
X111747380Y-42967619D02*
X111223571Y-42967619D01*
X111128333Y-42920000D01*
X111080714Y-42824761D01*
X111080714Y-42634285D01*
X111128333Y-42539047D01*
X111699761Y-42967619D02*
X111747380Y-42872380D01*
X111747380Y-42634285D01*
X111699761Y-42539047D01*
X111604523Y-42491428D01*
X111509285Y-42491428D01*
X111414047Y-42539047D01*
X111366428Y-42634285D01*
X111366428Y-42872380D01*
X111318809Y-42967619D01*
X111699761Y-43872380D02*
X111747380Y-43777142D01*
X111747380Y-43586666D01*
X111699761Y-43491428D01*
X111652142Y-43443809D01*
X111556904Y-43396190D01*
X111271190Y-43396190D01*
X111175952Y-43443809D01*
X111128333Y-43491428D01*
X111080714Y-43586666D01*
X111080714Y-43777142D01*
X111128333Y-43872380D01*
X111747380Y-44300952D02*
X111080714Y-44300952D01*
X110747380Y-44300952D02*
X110795000Y-44253333D01*
X110842619Y-44300952D01*
X110795000Y-44348571D01*
X110747380Y-44300952D01*
X110842619Y-44300952D01*
X111699761Y-45158095D02*
X111747380Y-45062857D01*
X111747380Y-44872380D01*
X111699761Y-44777142D01*
X111604523Y-44729523D01*
X111223571Y-44729523D01*
X111128333Y-44777142D01*
X111080714Y-44872380D01*
X111080714Y-45062857D01*
X111128333Y-45158095D01*
X111223571Y-45205714D01*
X111318809Y-45205714D01*
X111414047Y-44729523D01*
X111080714Y-45634285D02*
X111937857Y-45634285D01*
X112033095Y-45586666D01*
X112080714Y-45491428D01*
X112080714Y-45443809D01*
X110747380Y-45634285D02*
X110795000Y-45586666D01*
X110842619Y-45634285D01*
X110795000Y-45681904D01*
X110747380Y-45634285D01*
X110842619Y-45634285D01*
X110747380Y-46777142D02*
X111747380Y-47015238D01*
X111033095Y-47205714D01*
X111747380Y-47396190D01*
X110747380Y-47634285D01*
X111747380Y-48015238D02*
X111080714Y-48015238D01*
X110747380Y-48015238D02*
X110795000Y-47967619D01*
X110842619Y-48015238D01*
X110795000Y-48062857D01*
X110747380Y-48015238D01*
X110842619Y-48015238D01*
X111080714Y-48348571D02*
X111080714Y-48729523D01*
X110747380Y-48491428D02*
X111604523Y-48491428D01*
X111699761Y-48539047D01*
X111747380Y-48634285D01*
X111747380Y-48729523D01*
X111747380Y-49062857D02*
X110747380Y-49062857D01*
X111366428Y-49158095D02*
X111747380Y-49443809D01*
X111080714Y-49443809D02*
X111461666Y-49062857D01*
X111747380Y-50015238D02*
X111699761Y-49920000D01*
X111652142Y-49872380D01*
X111556904Y-49824761D01*
X111271190Y-49824761D01*
X111175952Y-49872380D01*
X111128333Y-49920000D01*
X111080714Y-50015238D01*
X111080714Y-50158095D01*
X111128333Y-50253333D01*
X111175952Y-50300952D01*
X111271190Y-50348571D01*
X111556904Y-50348571D01*
X111652142Y-50300952D01*
X111699761Y-50253333D01*
X111747380Y-50158095D01*
X111747380Y-50015238D01*
X111080714Y-50681904D02*
X111747380Y-50872380D01*
X111271190Y-51062857D01*
X111747380Y-51253333D01*
X111080714Y-51443809D01*
X111747380Y-51824761D02*
X111080714Y-51824761D01*
X110747380Y-51824761D02*
X110795000Y-51777142D01*
X110842619Y-51824761D01*
X110795000Y-51872380D01*
X110747380Y-51824761D01*
X110842619Y-51824761D01*
X111747380Y-52729523D02*
X111223571Y-52729523D01*
X111128333Y-52681904D01*
X111080714Y-52586666D01*
X111080714Y-52396190D01*
X111128333Y-52300952D01*
X111699761Y-52729523D02*
X111747380Y-52634285D01*
X111747380Y-52396190D01*
X111699761Y-52300952D01*
X111604523Y-52253333D01*
X111509285Y-52253333D01*
X111414047Y-52300952D01*
X111366428Y-52396190D01*
X111366428Y-52634285D01*
X111318809Y-52729523D01*
X111747380Y-53205714D02*
X110747380Y-53205714D01*
X111366428Y-53300952D02*
X111747380Y-53586666D01*
X111080714Y-53586666D02*
X111461666Y-53205714D01*
X111080714Y-55539047D02*
X111366428Y-54777142D01*
X111652142Y-55539047D01*
X111080714Y-55920000D02*
X111747380Y-56158095D01*
X111080714Y-56396190D02*
X111747380Y-56158095D01*
X111985476Y-56062857D01*
X112033095Y-56015238D01*
X112080714Y-55920000D01*
X111080714Y-56634285D02*
X111080714Y-57015238D01*
X110747380Y-56777142D02*
X111604523Y-56777142D01*
X111699761Y-56824761D01*
X111747380Y-56920000D01*
X111747380Y-57015238D01*
X111747380Y-57348571D02*
X111080714Y-57348571D01*
X111175952Y-57348571D02*
X111128333Y-57396190D01*
X111080714Y-57491428D01*
X111080714Y-57634285D01*
X111128333Y-57729523D01*
X111223571Y-57777142D01*
X111747380Y-57777142D01*
X111223571Y-57777142D02*
X111128333Y-57824761D01*
X111080714Y-57920000D01*
X111080714Y-58062857D01*
X111128333Y-58158095D01*
X111223571Y-58205714D01*
X111747380Y-58205714D01*
X111271190Y-59300952D02*
X111223571Y-59253333D01*
X111175952Y-59158095D01*
X111175952Y-59062857D01*
X111223571Y-58967619D01*
X111271190Y-58920000D01*
X111366428Y-58872380D01*
X111461666Y-58872380D01*
X111556904Y-58920000D01*
X111604523Y-58967619D01*
X111652142Y-59062857D01*
X111652142Y-59158095D01*
X111604523Y-59253333D01*
X111556904Y-59300952D01*
X111175952Y-59300952D02*
X111556904Y-59300952D01*
X111604523Y-59348571D01*
X111604523Y-59396190D01*
X111556904Y-59491428D01*
X111461666Y-59539047D01*
X111223571Y-59539047D01*
X111080714Y-59443809D01*
X110985476Y-59300952D01*
X110937857Y-59110476D01*
X110985476Y-58920000D01*
X111080714Y-58777142D01*
X111223571Y-58681904D01*
X111414047Y-58634285D01*
X111604523Y-58681904D01*
X111747380Y-58777142D01*
X111842619Y-58920000D01*
X111890238Y-59110476D01*
X111842619Y-59300952D01*
X111747380Y-59443809D01*
X111699761Y-60348571D02*
X111747380Y-60253333D01*
X111747380Y-60062857D01*
X111699761Y-59967619D01*
X111604523Y-59920000D01*
X111223571Y-59920000D01*
X111128333Y-59967619D01*
X111080714Y-60062857D01*
X111080714Y-60253333D01*
X111128333Y-60348571D01*
X111223571Y-60396190D01*
X111318809Y-60396190D01*
X111414047Y-59920000D01*
X111747380Y-60967619D02*
X111699761Y-60872380D01*
X111604523Y-60824761D01*
X110747380Y-60824761D01*
X111080714Y-61253333D02*
X111747380Y-61491428D01*
X111080714Y-61729523D02*
X111747380Y-61491428D01*
X111985476Y-61396190D01*
X112033095Y-61348571D01*
X112080714Y-61253333D01*
X111699761Y-62062857D02*
X111747380Y-62158095D01*
X111747380Y-62348571D01*
X111699761Y-62443809D01*
X111604523Y-62491428D01*
X111556904Y-62491428D01*
X111461666Y-62443809D01*
X111414047Y-62348571D01*
X111414047Y-62205714D01*
X111366428Y-62110476D01*
X111271190Y-62062857D01*
X111223571Y-62062857D01*
X111128333Y-62110476D01*
X111080714Y-62205714D01*
X111080714Y-62348571D01*
X111128333Y-62443809D01*
X111747380Y-62920000D02*
X111080714Y-62920000D01*
X110747380Y-62920000D02*
X110795000Y-62872380D01*
X110842619Y-62920000D01*
X110795000Y-62967619D01*
X110747380Y-62920000D01*
X110842619Y-62920000D01*
X111080714Y-63824761D02*
X111747380Y-63824761D01*
X111080714Y-63396190D02*
X111604523Y-63396190D01*
X111699761Y-63443809D01*
X111747380Y-63539047D01*
X111747380Y-63681904D01*
X111699761Y-63777142D01*
X111652142Y-63824761D01*
X111747380Y-64300952D02*
X111080714Y-64300952D01*
X111175952Y-64300952D02*
X111128333Y-64348571D01*
X111080714Y-64443809D01*
X111080714Y-64586666D01*
X111128333Y-64681904D01*
X111223571Y-64729523D01*
X111747380Y-64729523D01*
X111223571Y-64729523D02*
X111128333Y-64777142D01*
X111080714Y-64872380D01*
X111080714Y-65015238D01*
X111128333Y-65110476D01*
X111223571Y-65158095D01*
X111747380Y-65158095D01*
X111652142Y-65634285D02*
X111699761Y-65681904D01*
X111747380Y-65634285D01*
X111699761Y-65586666D01*
X111652142Y-65634285D01*
X111747380Y-65634285D01*
X111080714Y-66110476D02*
X112080714Y-66110476D01*
X111128333Y-66110476D02*
X111080714Y-66205714D01*
X111080714Y-66396190D01*
X111128333Y-66491428D01*
X111175952Y-66539047D01*
X111271190Y-66586666D01*
X111556904Y-66586666D01*
X111652142Y-66539047D01*
X111699761Y-66491428D01*
X111747380Y-66396190D01*
X111747380Y-66205714D01*
X111699761Y-66110476D01*
X111747380Y-67158095D02*
X111699761Y-67062857D01*
X111604523Y-67015238D01*
X110747380Y-67015238D01*
X111080714Y-67539047D02*
X111366428Y-68300952D01*
X111652142Y-67539047D01*
X111699761Y-68824761D02*
X111747380Y-68824761D01*
X111842619Y-68777142D01*
X111890238Y-68729523D01*
X110747380Y-69872380D02*
X111747380Y-70205714D01*
X110747380Y-70539047D01*
X111747380Y-70872380D02*
X110747380Y-70872380D01*
X110842619Y-72062857D02*
X110795000Y-72110476D01*
X110747380Y-72205714D01*
X110747380Y-72443809D01*
X110795000Y-72539047D01*
X110842619Y-72586666D01*
X110937857Y-72634285D01*
X111033095Y-72634285D01*
X111175952Y-72586666D01*
X111747380Y-72015238D01*
X111747380Y-72634285D01*
X110747380Y-73253333D02*
X110747380Y-73348571D01*
X110795000Y-73443809D01*
X110842619Y-73491428D01*
X110937857Y-73539047D01*
X111128333Y-73586666D01*
X111366428Y-73586666D01*
X111556904Y-73539047D01*
X111652142Y-73491428D01*
X111699761Y-73443809D01*
X111747380Y-73348571D01*
X111747380Y-73253333D01*
X111699761Y-73158095D01*
X111652142Y-73110476D01*
X111556904Y-73062857D01*
X111366428Y-73015238D01*
X111128333Y-73015238D01*
X110937857Y-73062857D01*
X110842619Y-73110476D01*
X110795000Y-73158095D01*
X110747380Y-73253333D01*
X110842619Y-73967619D02*
X110795000Y-74015238D01*
X110747380Y-74110476D01*
X110747380Y-74348571D01*
X110795000Y-74443809D01*
X110842619Y-74491428D01*
X110937857Y-74539047D01*
X111033095Y-74539047D01*
X111175952Y-74491428D01*
X111747380Y-73920000D01*
X111747380Y-74539047D01*
X110842619Y-74920000D02*
X110795000Y-74967619D01*
X110747380Y-75062857D01*
X110747380Y-75300952D01*
X110795000Y-75396190D01*
X110842619Y-75443809D01*
X110937857Y-75491428D01*
X111033095Y-75491428D01*
X111175952Y-75443809D01*
X111747380Y-74872380D01*
X111747380Y-75491428D01*
%LPC*%
D11*
X116840000Y-101600000D03*
D12*
X106680000Y-101600000D03*
D13*
X82550000Y-99060000D03*
D14*
X82550000Y-101600000D03*
D15*
X104145000Y-86350000D03*
D12*
X104145000Y-83810000D03*
X104145000Y-81270000D03*
X104145000Y-78730000D03*
X104145000Y-76190000D03*
X104145000Y-73650000D03*
X104145000Y-71110000D03*
X104145000Y-68570000D03*
X104145000Y-66030000D03*
X104145000Y-63490000D03*
X104145000Y-60950000D03*
X104145000Y-58410000D03*
X104145000Y-55870000D03*
X104145000Y-53330000D03*
X104145000Y-50790000D03*
X104145000Y-48250000D03*
X104145000Y-45710000D03*
X104145000Y-43170000D03*
X104145000Y-40630000D03*
X104145000Y-38090000D03*
X104145000Y-35550000D03*
X104145000Y-33010000D03*
X104145000Y-30470000D03*
X104145000Y-27930000D03*
X88905000Y-27930000D03*
X88905000Y-30470000D03*
X88905000Y-33010000D03*
X88905000Y-35550000D03*
X88905000Y-38090000D03*
X88905000Y-40630000D03*
X88905000Y-43170000D03*
X88905000Y-45710000D03*
X88905000Y-48250000D03*
X88905000Y-50790000D03*
X88905000Y-53330000D03*
X88905000Y-55870000D03*
X88905000Y-58410000D03*
X88905000Y-60950000D03*
X88905000Y-63490000D03*
X88905000Y-66030000D03*
X88905000Y-68570000D03*
X88905000Y-71110000D03*
X88905000Y-73650000D03*
X88905000Y-76190000D03*
X88905000Y-78730000D03*
X88905000Y-81270000D03*
X88905000Y-83810000D03*
X88905000Y-86350000D03*
D15*
X97795000Y-86350000D03*
D12*
X97795000Y-83810000D03*
X97795000Y-81270000D03*
X97795000Y-78730000D03*
X97795000Y-76190000D03*
X97795000Y-73650000D03*
X97795000Y-71110000D03*
X97795000Y-68570000D03*
X97795000Y-66030000D03*
X97795000Y-63490000D03*
X97795000Y-60950000D03*
X97795000Y-58410000D03*
X97795000Y-55870000D03*
X97795000Y-53330000D03*
X97795000Y-50790000D03*
X97795000Y-48250000D03*
X97795000Y-45710000D03*
X97795000Y-43170000D03*
X97795000Y-40630000D03*
X97795000Y-38090000D03*
X97795000Y-35550000D03*
X97795000Y-33010000D03*
X97795000Y-30470000D03*
X97795000Y-27930000D03*
X82555000Y-27930000D03*
X82555000Y-30470000D03*
X82555000Y-33010000D03*
X82555000Y-35550000D03*
X82555000Y-38090000D03*
X82555000Y-40630000D03*
X82555000Y-43170000D03*
X82555000Y-45710000D03*
X82555000Y-48250000D03*
X82555000Y-50790000D03*
X82555000Y-53330000D03*
X82555000Y-55870000D03*
X82555000Y-58410000D03*
X82555000Y-60950000D03*
X82555000Y-63490000D03*
X82555000Y-66030000D03*
X82555000Y-68570000D03*
X82555000Y-71110000D03*
X82555000Y-73650000D03*
X82555000Y-76190000D03*
X82555000Y-78730000D03*
X82555000Y-81270000D03*
X82555000Y-83810000D03*
X82555000Y-86350000D03*
D11*
X104140000Y-101600000D03*
D12*
X93980000Y-101600000D03*
D15*
X116845000Y-86350000D03*
D12*
X116845000Y-83810000D03*
X116845000Y-81270000D03*
X116845000Y-78730000D03*
X116845000Y-76190000D03*
X116845000Y-73650000D03*
X116845000Y-71110000D03*
X116845000Y-68570000D03*
X116845000Y-66030000D03*
X116845000Y-63490000D03*
X116845000Y-60950000D03*
X116845000Y-58410000D03*
X116845000Y-55870000D03*
X116845000Y-53330000D03*
X116845000Y-50790000D03*
X116845000Y-48250000D03*
X116845000Y-45710000D03*
X116845000Y-43170000D03*
X116845000Y-40630000D03*
X116845000Y-38090000D03*
X116845000Y-35550000D03*
X116845000Y-33010000D03*
X116845000Y-30470000D03*
X116845000Y-27930000D03*
X101605000Y-27930000D03*
X101605000Y-30470000D03*
X101605000Y-33010000D03*
X101605000Y-35550000D03*
X101605000Y-38090000D03*
X101605000Y-40630000D03*
X101605000Y-43170000D03*
X101605000Y-45710000D03*
X101605000Y-48250000D03*
X101605000Y-50790000D03*
X101605000Y-53330000D03*
X101605000Y-55870000D03*
X101605000Y-58410000D03*
X101605000Y-60950000D03*
X101605000Y-63490000D03*
X101605000Y-66030000D03*
X101605000Y-68570000D03*
X101605000Y-71110000D03*
X101605000Y-73650000D03*
X101605000Y-76190000D03*
X101605000Y-78730000D03*
X101605000Y-81270000D03*
X101605000Y-83810000D03*
X101605000Y-86350000D03*
D13*
X82550000Y-91440000D03*
D14*
X82550000Y-93980000D03*
D13*
X89540000Y-101600000D03*
D14*
X87000000Y-101600000D03*
D15*
X88895000Y-97780000D03*
D12*
X91435000Y-97780000D03*
X93975000Y-97780000D03*
X96515000Y-97780000D03*
X99055000Y-97780000D03*
X101595000Y-97780000D03*
X104135000Y-97780000D03*
X106675000Y-97780000D03*
X109215000Y-97780000D03*
X111755000Y-97780000D03*
X114295000Y-97780000D03*
X116835000Y-97780000D03*
X116835000Y-90160000D03*
X114295000Y-90160000D03*
X111755000Y-90160000D03*
X109215000Y-90160000D03*
X106675000Y-90160000D03*
X104135000Y-90160000D03*
X101595000Y-90160000D03*
X99055000Y-90160000D03*
X96515000Y-90160000D03*
X93975000Y-90160000D03*
X91435000Y-90160000D03*
X88895000Y-90160000D03*
M02*
