G04 #@! TF.GenerationSoftware,KiCad,Pcbnew,(6.0.5)*
G04 #@! TF.CreationDate,2022-07-17T20:37:41+02:00*
G04 #@! TF.ProjectId,c128-mmu-exp,63313238-2d6d-46d7-952d-6578702e6b69,rev?*
G04 #@! TF.SameCoordinates,Original*
G04 #@! TF.FileFunction,Copper,L1,Top*
G04 #@! TF.FilePolarity,Positive*
%FSLAX46Y46*%
G04 Gerber Fmt 4.6, Leading zero omitted, Abs format (unit mm)*
G04 Created by KiCad (PCBNEW (6.0.5)) date 2022-07-17 20:37:41*
%MOMM*%
%LPD*%
G01*
G04 APERTURE LIST*
G04 #@! TA.AperFunction,ComponentPad*
%ADD10C,1.600000*%
G04 #@! TD*
G04 #@! TA.AperFunction,ComponentPad*
%ADD11O,1.600000X1.600000*%
G04 #@! TD*
G04 #@! TA.AperFunction,ComponentPad*
%ADD12R,1.700000X1.700000*%
G04 #@! TD*
G04 #@! TA.AperFunction,ComponentPad*
%ADD13O,1.700000X1.700000*%
G04 #@! TD*
G04 #@! TA.AperFunction,ComponentPad*
%ADD14R,1.600000X1.600000*%
G04 #@! TD*
G04 #@! TA.AperFunction,ViaPad*
%ADD15C,0.800000*%
G04 #@! TD*
G04 #@! TA.AperFunction,Conductor*
%ADD16C,0.250000*%
G04 #@! TD*
G04 APERTURE END LIST*
D10*
X116840000Y-101600000D03*
D11*
X106680000Y-101600000D03*
D12*
X82550000Y-99060000D03*
D13*
X82550000Y-101600000D03*
D14*
X104145000Y-86350000D03*
D11*
X104145000Y-83810000D03*
X104145000Y-81270000D03*
X104145000Y-78730000D03*
X104145000Y-76190000D03*
X104145000Y-73650000D03*
X104145000Y-71110000D03*
X104145000Y-68570000D03*
X104145000Y-66030000D03*
X104145000Y-63490000D03*
X104145000Y-60950000D03*
X104145000Y-58410000D03*
X104145000Y-55870000D03*
X104145000Y-53330000D03*
X104145000Y-50790000D03*
X104145000Y-48250000D03*
X104145000Y-45710000D03*
X104145000Y-43170000D03*
X104145000Y-40630000D03*
X104145000Y-38090000D03*
X104145000Y-35550000D03*
X104145000Y-33010000D03*
X104145000Y-30470000D03*
X104145000Y-27930000D03*
X88905000Y-27930000D03*
X88905000Y-30470000D03*
X88905000Y-33010000D03*
X88905000Y-35550000D03*
X88905000Y-38090000D03*
X88905000Y-40630000D03*
X88905000Y-43170000D03*
X88905000Y-45710000D03*
X88905000Y-48250000D03*
X88905000Y-50790000D03*
X88905000Y-53330000D03*
X88905000Y-55870000D03*
X88905000Y-58410000D03*
X88905000Y-60950000D03*
X88905000Y-63490000D03*
X88905000Y-66030000D03*
X88905000Y-68570000D03*
X88905000Y-71110000D03*
X88905000Y-73650000D03*
X88905000Y-76190000D03*
X88905000Y-78730000D03*
X88905000Y-81270000D03*
X88905000Y-83810000D03*
X88905000Y-86350000D03*
D14*
X97795000Y-86350000D03*
D11*
X97795000Y-83810000D03*
X97795000Y-81270000D03*
X97795000Y-78730000D03*
X97795000Y-76190000D03*
X97795000Y-73650000D03*
X97795000Y-71110000D03*
X97795000Y-68570000D03*
X97795000Y-66030000D03*
X97795000Y-63490000D03*
X97795000Y-60950000D03*
X97795000Y-58410000D03*
X97795000Y-55870000D03*
X97795000Y-53330000D03*
X97795000Y-50790000D03*
X97795000Y-48250000D03*
X97795000Y-45710000D03*
X97795000Y-43170000D03*
X97795000Y-40630000D03*
X97795000Y-38090000D03*
X97795000Y-35550000D03*
X97795000Y-33010000D03*
X97795000Y-30470000D03*
X97795000Y-27930000D03*
X82555000Y-27930000D03*
X82555000Y-30470000D03*
X82555000Y-33010000D03*
X82555000Y-35550000D03*
X82555000Y-38090000D03*
X82555000Y-40630000D03*
X82555000Y-43170000D03*
X82555000Y-45710000D03*
X82555000Y-48250000D03*
X82555000Y-50790000D03*
X82555000Y-53330000D03*
X82555000Y-55870000D03*
X82555000Y-58410000D03*
X82555000Y-60950000D03*
X82555000Y-63490000D03*
X82555000Y-66030000D03*
X82555000Y-68570000D03*
X82555000Y-71110000D03*
X82555000Y-73650000D03*
X82555000Y-76190000D03*
X82555000Y-78730000D03*
X82555000Y-81270000D03*
X82555000Y-83810000D03*
X82555000Y-86350000D03*
D10*
X104140000Y-101600000D03*
D11*
X93980000Y-101600000D03*
D14*
X116845000Y-86350000D03*
D11*
X116845000Y-83810000D03*
X116845000Y-81270000D03*
X116845000Y-78730000D03*
X116845000Y-76190000D03*
X116845000Y-73650000D03*
X116845000Y-71110000D03*
X116845000Y-68570000D03*
X116845000Y-66030000D03*
X116845000Y-63490000D03*
X116845000Y-60950000D03*
X116845000Y-58410000D03*
X116845000Y-55870000D03*
X116845000Y-53330000D03*
X116845000Y-50790000D03*
X116845000Y-48250000D03*
X116845000Y-45710000D03*
X116845000Y-43170000D03*
X116845000Y-40630000D03*
X116845000Y-38090000D03*
X116845000Y-35550000D03*
X116845000Y-33010000D03*
X116845000Y-30470000D03*
X116845000Y-27930000D03*
X101605000Y-27930000D03*
X101605000Y-30470000D03*
X101605000Y-33010000D03*
X101605000Y-35550000D03*
X101605000Y-38090000D03*
X101605000Y-40630000D03*
X101605000Y-43170000D03*
X101605000Y-45710000D03*
X101605000Y-48250000D03*
X101605000Y-50790000D03*
X101605000Y-53330000D03*
X101605000Y-55870000D03*
X101605000Y-58410000D03*
X101605000Y-60950000D03*
X101605000Y-63490000D03*
X101605000Y-66030000D03*
X101605000Y-68570000D03*
X101605000Y-71110000D03*
X101605000Y-73650000D03*
X101605000Y-76190000D03*
X101605000Y-78730000D03*
X101605000Y-81270000D03*
X101605000Y-83810000D03*
X101605000Y-86350000D03*
D12*
X82550000Y-91440000D03*
D13*
X82550000Y-93980000D03*
D12*
X89540000Y-101600000D03*
D13*
X87000000Y-101600000D03*
D14*
X88895000Y-97780000D03*
D11*
X91435000Y-97780000D03*
X93975000Y-97780000D03*
X96515000Y-97780000D03*
X99055000Y-97780000D03*
X101595000Y-97780000D03*
X104135000Y-97780000D03*
X106675000Y-97780000D03*
X109215000Y-97780000D03*
X111755000Y-97780000D03*
X114295000Y-97780000D03*
X116835000Y-97780000D03*
X116835000Y-90160000D03*
X114295000Y-90160000D03*
X111755000Y-90160000D03*
X109215000Y-90160000D03*
X106675000Y-90160000D03*
X104135000Y-90160000D03*
X101595000Y-90160000D03*
X99055000Y-90160000D03*
X96515000Y-90160000D03*
X93975000Y-90160000D03*
X91435000Y-90160000D03*
X88895000Y-90160000D03*
D15*
X94031200Y-43392900D03*
X96386100Y-68481600D03*
X92300400Y-71509000D03*
X95546100Y-67906400D03*
X93038900Y-70413600D03*
X96301800Y-99760500D03*
X114810200Y-82121500D03*
X111261800Y-76635300D03*
X105786700Y-93694000D03*
X102478500Y-93646100D03*
X104800400Y-93252900D03*
X106897900Y-93839300D03*
X108599900Y-70993600D03*
X109715700Y-68923300D03*
D16*
X103019700Y-83528700D02*
X102175700Y-82684700D01*
X102175700Y-82684700D02*
X100045600Y-82684700D01*
X100045600Y-82684700D02*
X98920300Y-83810000D01*
X104145000Y-83810000D02*
X103019700Y-83810000D01*
X97795000Y-83810000D02*
X98920300Y-83810000D01*
X103019700Y-83810000D02*
X103019700Y-83528700D01*
X116845000Y-48250000D02*
X104145000Y-48250000D01*
X103019700Y-48250000D02*
X103019700Y-47968600D01*
X104145000Y-48250000D02*
X103019700Y-48250000D01*
X100045600Y-47124700D02*
X98920300Y-48250000D01*
X97795000Y-48250000D02*
X98920300Y-48250000D01*
X103019700Y-47968600D02*
X102175800Y-47124700D01*
X102175800Y-47124700D02*
X100045600Y-47124700D01*
X103019700Y-45428700D02*
X102175700Y-44584700D01*
X103019700Y-45710000D02*
X103019700Y-45428700D01*
X97795000Y-45710000D02*
X98920300Y-45710000D01*
X100045600Y-44584700D02*
X98920300Y-45710000D01*
X104145000Y-45710000D02*
X103019700Y-45710000D01*
X102175700Y-44584700D02*
X100045600Y-44584700D01*
X88895000Y-97780000D02*
X88895000Y-96654700D01*
X87268400Y-95028100D02*
X87268400Y-53334800D01*
X94031200Y-47274600D02*
X94031200Y-43392900D01*
X88895000Y-96654700D02*
X87268400Y-95028100D01*
X100045600Y-42044700D02*
X102175800Y-42044700D01*
X87268400Y-53334800D02*
X88543200Y-52060000D01*
X89245800Y-52060000D02*
X94031200Y-47274600D01*
X98920300Y-43170000D02*
X100045600Y-42044700D01*
X103019700Y-42888600D02*
X103019700Y-43170000D01*
X88543200Y-52060000D02*
X89245800Y-52060000D01*
X104145000Y-43170000D02*
X103019700Y-43170000D01*
X97795000Y-43170000D02*
X98920300Y-43170000D01*
X102175800Y-42044700D02*
X103019700Y-42888600D01*
X96386100Y-42882900D02*
X97513700Y-41755300D01*
X91435000Y-91994800D02*
X90275000Y-90834800D01*
X90275000Y-90834800D02*
X90275000Y-73534400D01*
X96386100Y-68481600D02*
X96386100Y-42882900D01*
X97513700Y-41755300D02*
X97795000Y-41755300D01*
X91435000Y-97780000D02*
X91435000Y-91994800D01*
X90275000Y-73534400D02*
X92300400Y-71509000D01*
X97795000Y-40630000D02*
X97795000Y-41755300D01*
X92838800Y-95518500D02*
X92838800Y-71996400D01*
X93038900Y-71796300D02*
X93038900Y-70413600D01*
X102175800Y-39215300D02*
X103019700Y-38371400D01*
X103019700Y-38371400D02*
X103019700Y-38090000D01*
X104145000Y-38090000D02*
X103019700Y-38090000D01*
X92838800Y-71996400D02*
X93038900Y-71796300D01*
X93975000Y-96654700D02*
X92838800Y-95518500D01*
X95546100Y-67906400D02*
X95546100Y-41232400D01*
X97795000Y-39215300D02*
X102175800Y-39215300D01*
X95546100Y-41232400D02*
X97563200Y-39215300D01*
X97563200Y-39215300D02*
X97795000Y-39215300D01*
X93975000Y-97780000D02*
X93975000Y-96654700D01*
X97795000Y-38090000D02*
X97795000Y-39215300D01*
X96515000Y-97780000D02*
X96515000Y-96654700D01*
X97513700Y-36675300D02*
X97795000Y-36675300D01*
X104145000Y-35550000D02*
X103019700Y-35550000D01*
X103019700Y-35550000D02*
X103019700Y-35831400D01*
X97795000Y-35550000D02*
X97795000Y-36675300D01*
X96515000Y-96654700D02*
X97670300Y-95499400D01*
X103019700Y-35831400D02*
X102175800Y-36675300D01*
X102175800Y-36675300D02*
X97795000Y-36675300D01*
X97670300Y-89256600D02*
X94807400Y-86393700D01*
X97670300Y-95499400D02*
X97670300Y-89256600D01*
X94807400Y-39381600D02*
X97513700Y-36675300D01*
X94807400Y-86393700D02*
X94807400Y-39381600D01*
X100045600Y-31884700D02*
X98920300Y-33010000D01*
X97795000Y-33010000D02*
X98920300Y-33010000D01*
X104145000Y-33010000D02*
X103019700Y-33010000D01*
X102175700Y-31884700D02*
X100045600Y-31884700D01*
X103019700Y-33010000D02*
X103019700Y-32728700D01*
X103019700Y-32728700D02*
X102175700Y-31884700D01*
X82555000Y-45710000D02*
X88905000Y-45710000D01*
X88905000Y-48250000D02*
X82555000Y-48250000D01*
X88905000Y-53330000D02*
X88905000Y-54455300D01*
X94207100Y-59476100D02*
X89186300Y-54455300D01*
X94207100Y-87417900D02*
X94207100Y-59476100D01*
X95245000Y-98703700D02*
X95245000Y-88455800D01*
X95245000Y-88455800D02*
X94207100Y-87417900D01*
X89186300Y-54455300D02*
X88905000Y-54455300D01*
X96301800Y-99760500D02*
X95245000Y-98703700D01*
X103574200Y-56995300D02*
X102730300Y-56151400D01*
X110482900Y-95382600D02*
X110482900Y-63082600D01*
X111755000Y-97780000D02*
X111755000Y-96654700D01*
X110482900Y-63082600D02*
X104395600Y-56995300D01*
X101605000Y-55870000D02*
X102730300Y-55870000D01*
X102730300Y-56151400D02*
X102730300Y-55870000D01*
X111755000Y-96654700D02*
X110482900Y-95382600D01*
X104395600Y-56995300D02*
X103574200Y-56995300D01*
X113169700Y-97780000D02*
X113169700Y-98061300D01*
X93444100Y-99407000D02*
X91416900Y-99407000D01*
X108497700Y-102733300D02*
X96770400Y-102733300D01*
X87753200Y-70565800D02*
X88623700Y-69695300D01*
X114295000Y-97780000D02*
X113169700Y-97780000D01*
X88623700Y-69695300D02*
X88905000Y-69695300D01*
X87753200Y-92348700D02*
X87753200Y-70565800D01*
X113169700Y-98061300D02*
X108497700Y-102733300D01*
X91416900Y-99407000D02*
X90050000Y-98040100D01*
X90050000Y-94645500D02*
X87753200Y-92348700D01*
X90050000Y-98040100D02*
X90050000Y-94645500D01*
X88905000Y-68570000D02*
X88905000Y-69695300D01*
X96770400Y-102733300D02*
X93444100Y-99407000D01*
X116835000Y-90160000D02*
X116835000Y-89034700D01*
X116835000Y-89034700D02*
X114810200Y-87009900D01*
X114810200Y-87009900D02*
X114810200Y-82121500D01*
X113335500Y-88075300D02*
X113335600Y-88075300D01*
X102730300Y-53330000D02*
X102730300Y-53611400D01*
X113335500Y-63422600D02*
X113335500Y-88075300D01*
X113335600Y-88075300D02*
X114295000Y-89034700D01*
X104368200Y-54455300D02*
X113335500Y-63422600D01*
X101605000Y-53330000D02*
X102730300Y-53330000D01*
X102730300Y-53611400D02*
X103574200Y-54455300D01*
X114295000Y-90160000D02*
X114295000Y-89034700D01*
X103574200Y-54455300D02*
X104368200Y-54455300D01*
X111755000Y-89034700D02*
X111261800Y-88541500D01*
X111755000Y-90160000D02*
X111755000Y-89034700D01*
X111261800Y-88541500D02*
X111261800Y-76635300D01*
X106675000Y-97780000D02*
X106675000Y-96654700D01*
X106675000Y-96654700D02*
X105786700Y-95766400D01*
X105786700Y-95766400D02*
X105786700Y-93694000D01*
X104135000Y-97780000D02*
X104135000Y-96654700D01*
X102478500Y-94998200D02*
X102478500Y-93646100D01*
X104135000Y-96654700D02*
X102478500Y-94998200D01*
X106675000Y-90160000D02*
X106675000Y-91285300D01*
X106675000Y-91285300D02*
X104800400Y-93159900D01*
X104800400Y-93159900D02*
X104800400Y-93252900D01*
X109215000Y-91285300D02*
X106897900Y-93602400D01*
X109215000Y-90160000D02*
X109215000Y-91285300D01*
X106897900Y-93602400D02*
X106897900Y-93839300D01*
X98920300Y-81270000D02*
X100045600Y-80144700D01*
X103019700Y-80988600D02*
X103019700Y-81270000D01*
X100045600Y-80144700D02*
X102175800Y-80144700D01*
X102175800Y-80144700D02*
X103019700Y-80988600D01*
X104145000Y-81270000D02*
X103019700Y-81270000D01*
X97795000Y-81270000D02*
X98920300Y-81270000D01*
X97795000Y-78730000D02*
X98920300Y-78730000D01*
X98920300Y-78730000D02*
X100045600Y-77604700D01*
X102175800Y-77604700D02*
X103019700Y-78448600D01*
X100045600Y-77604700D02*
X102175800Y-77604700D01*
X104145000Y-78730000D02*
X103019700Y-78730000D01*
X103019700Y-78448600D02*
X103019700Y-78730000D01*
X104145000Y-76190000D02*
X103019700Y-76190000D01*
X102175800Y-75064700D02*
X103019700Y-75908600D01*
X103019700Y-75908600D02*
X103019700Y-76190000D01*
X98920300Y-76190000D02*
X100045600Y-75064700D01*
X100045600Y-75064700D02*
X102175800Y-75064700D01*
X97795000Y-76190000D02*
X98920300Y-76190000D01*
X97795000Y-71110000D02*
X98920300Y-71110000D01*
X103019700Y-71391400D02*
X103019700Y-71110000D01*
X100045600Y-72235300D02*
X102175800Y-72235300D01*
X102175800Y-72235300D02*
X103019700Y-71391400D01*
X98920300Y-71110000D02*
X100045600Y-72235300D01*
X104145000Y-71110000D02*
X103019700Y-71110000D01*
X100045600Y-69695300D02*
X102175800Y-69695300D01*
X103019700Y-68851400D02*
X103019700Y-68570000D01*
X98920300Y-68570000D02*
X100045600Y-69695300D01*
X104145000Y-68570000D02*
X103019700Y-68570000D01*
X97795000Y-68570000D02*
X98920300Y-68570000D01*
X102175800Y-69695300D02*
X103019700Y-68851400D01*
X102175800Y-67155300D02*
X103019700Y-66311400D01*
X97795000Y-66030000D02*
X98920300Y-66030000D01*
X100045600Y-67155300D02*
X102175800Y-67155300D01*
X104145000Y-66030000D02*
X103019700Y-66030000D01*
X98920300Y-66030000D02*
X100045600Y-67155300D01*
X103019700Y-66311400D02*
X103019700Y-66030000D01*
X98920300Y-63490000D02*
X100045600Y-64615300D01*
X103019700Y-63771400D02*
X103019700Y-63490000D01*
X97795000Y-63490000D02*
X98920300Y-63490000D01*
X100045600Y-64615300D02*
X102175800Y-64615300D01*
X102175800Y-64615300D02*
X103019700Y-63771400D01*
X104145000Y-63490000D02*
X103019700Y-63490000D01*
X104145000Y-60950000D02*
X103019700Y-60950000D01*
X102175800Y-62075300D02*
X103019700Y-61231400D01*
X97795000Y-60950000D02*
X98920300Y-60950000D01*
X100045600Y-62075300D02*
X102175800Y-62075300D01*
X98920300Y-60950000D02*
X100045600Y-62075300D01*
X103019700Y-61231400D02*
X103019700Y-60950000D01*
X97795000Y-58410000D02*
X98920300Y-58410000D01*
X104145000Y-58410000D02*
X103019700Y-58410000D01*
X102175800Y-57284700D02*
X103019700Y-58128600D01*
X103019700Y-58128600D02*
X103019700Y-58410000D01*
X100045600Y-57284700D02*
X102175800Y-57284700D01*
X98920300Y-58410000D02*
X100045600Y-57284700D01*
X97795000Y-53330000D02*
X98920300Y-53330000D01*
X102229900Y-52192700D02*
X103367200Y-53330000D01*
X98920300Y-53330000D02*
X100057600Y-52192700D01*
X103367200Y-53330000D02*
X104145000Y-53330000D01*
X100057600Y-52192700D02*
X102229900Y-52192700D01*
X104145000Y-50790000D02*
X103019700Y-50790000D01*
X97795000Y-50790000D02*
X98920300Y-50790000D01*
X98920300Y-50790000D02*
X100045600Y-49664700D01*
X103019700Y-50508600D02*
X103019700Y-50790000D01*
X100045600Y-49664700D02*
X102175800Y-49664700D01*
X102175800Y-49664700D02*
X103019700Y-50508600D01*
X115709700Y-95529400D02*
X115709700Y-89679700D01*
X114084800Y-88054800D02*
X114084800Y-61631900D01*
X103019600Y-52204600D02*
X101605000Y-50790000D01*
X114084800Y-61631900D02*
X104657500Y-52204600D01*
X116835000Y-97780000D02*
X116835000Y-96654700D01*
X104657500Y-52204600D02*
X103019600Y-52204600D01*
X116835000Y-96654700D02*
X115709700Y-95529400D01*
X115709700Y-89679700D02*
X114084800Y-88054800D01*
X103019600Y-86735600D02*
X103019600Y-85347600D01*
X100180300Y-89574900D02*
X103019600Y-86735600D01*
X103019600Y-85347600D02*
X103142600Y-85224600D01*
X99055000Y-97780000D02*
X99055000Y-96654700D01*
X103142600Y-85224600D02*
X104339500Y-85224600D01*
X104339500Y-85224600D02*
X108599900Y-80964200D01*
X108599900Y-80964200D02*
X108599900Y-70993600D01*
X100180300Y-95529400D02*
X100180300Y-89574900D01*
X99055000Y-96654700D02*
X100180300Y-95529400D01*
X101595000Y-96654700D02*
X101595000Y-91960200D01*
X101595000Y-91960200D02*
X102865000Y-90690200D01*
X109715700Y-82908400D02*
X109715700Y-68923300D01*
X102865000Y-89759100D02*
X109715700Y-82908400D01*
X102865000Y-90690200D02*
X102865000Y-89759100D01*
X101595000Y-97780000D02*
X101595000Y-96654700D01*
X104135000Y-90160000D02*
X104135000Y-91285300D01*
X104135000Y-91285300D02*
X104075100Y-91345200D01*
X105325900Y-100414100D02*
X104140000Y-101600000D01*
X105325900Y-94804100D02*
X105325900Y-100414100D01*
X104075100Y-93553300D02*
X105325900Y-94804100D01*
X104075100Y-91345200D02*
X104075100Y-93553300D01*
M02*
