G04 #@! TF.GenerationSoftware,KiCad,Pcbnew,(6.0.5)*
G04 #@! TF.CreationDate,2022-07-17T20:37:41+02:00*
G04 #@! TF.ProjectId,c128-mmu-exp,63313238-2d6d-46d7-952d-6578702e6b69,rev?*
G04 #@! TF.SameCoordinates,Original*
G04 #@! TF.FileFunction,Legend,Top*
G04 #@! TF.FilePolarity,Positive*
%FSLAX46Y46*%
G04 Gerber Fmt 4.6, Leading zero omitted, Abs format (unit mm)*
G04 Created by KiCad (PCBNEW (6.0.5)) date 2022-07-17 20:37:41*
%MOMM*%
%LPD*%
G01*
G04 APERTURE LIST*
%ADD10C,0.150000*%
%ADD11C,0.120000*%
%ADD12C,1.600000*%
%ADD13O,1.600000X1.600000*%
%ADD14R,1.700000X1.700000*%
%ADD15O,1.700000X1.700000*%
%ADD16R,1.600000X1.600000*%
G04 APERTURE END LIST*
D10*
X111593333Y-102052380D02*
X111260000Y-101576190D01*
X111021904Y-102052380D02*
X111021904Y-101052380D01*
X111402857Y-101052380D01*
X111498095Y-101100000D01*
X111545714Y-101147619D01*
X111593333Y-101242857D01*
X111593333Y-101385714D01*
X111545714Y-101480952D01*
X111498095Y-101528571D01*
X111402857Y-101576190D01*
X111021904Y-101576190D01*
X112545714Y-102052380D02*
X111974285Y-102052380D01*
X112260000Y-102052380D02*
X112260000Y-101052380D01*
X112164761Y-101195238D01*
X112069523Y-101290476D01*
X111974285Y-101338095D01*
X82002380Y-97063333D02*
X82716666Y-97063333D01*
X82859523Y-97110952D01*
X82954761Y-97206190D01*
X83002380Y-97349047D01*
X83002380Y-97444285D01*
X82097619Y-96634761D02*
X82050000Y-96587142D01*
X82002380Y-96491904D01*
X82002380Y-96253809D01*
X82050000Y-96158571D01*
X82097619Y-96110952D01*
X82192857Y-96063333D01*
X82288095Y-96063333D01*
X82430952Y-96110952D01*
X83002380Y-96682380D01*
X83002380Y-96063333D01*
X83947095Y-85939380D02*
X83947095Y-86748904D01*
X83994714Y-86844142D01*
X84042333Y-86891761D01*
X84137571Y-86939380D01*
X84328047Y-86939380D01*
X84423285Y-86891761D01*
X84470904Y-86844142D01*
X84518523Y-86748904D01*
X84518523Y-85939380D01*
X84899476Y-85939380D02*
X85566142Y-85939380D01*
X85137571Y-86939380D01*
X98893333Y-102052380D02*
X98560000Y-101576190D01*
X98321904Y-102052380D02*
X98321904Y-101052380D01*
X98702857Y-101052380D01*
X98798095Y-101100000D01*
X98845714Y-101147619D01*
X98893333Y-101242857D01*
X98893333Y-101385714D01*
X98845714Y-101480952D01*
X98798095Y-101528571D01*
X98702857Y-101576190D01*
X98321904Y-101576190D01*
X99274285Y-101147619D02*
X99321904Y-101100000D01*
X99417142Y-101052380D01*
X99655238Y-101052380D01*
X99750476Y-101100000D01*
X99798095Y-101147619D01*
X99845714Y-101242857D01*
X99845714Y-101338095D01*
X99798095Y-101480952D01*
X99226666Y-102052380D01*
X99845714Y-102052380D01*
X113196809Y-86939380D02*
X113196809Y-85939380D01*
X114244428Y-86844142D02*
X114196809Y-86891761D01*
X114053952Y-86939380D01*
X113958714Y-86939380D01*
X113815857Y-86891761D01*
X113720619Y-86796523D01*
X113673000Y-86701285D01*
X113625380Y-86510809D01*
X113625380Y-86367952D01*
X113673000Y-86177476D01*
X113720619Y-86082238D01*
X113815857Y-85987000D01*
X113958714Y-85939380D01*
X114053952Y-85939380D01*
X114196809Y-85987000D01*
X114244428Y-86034619D01*
X115149190Y-85939380D02*
X114673000Y-85939380D01*
X114625380Y-86415571D01*
X114673000Y-86367952D01*
X114768238Y-86320333D01*
X115006333Y-86320333D01*
X115101571Y-86367952D01*
X115149190Y-86415571D01*
X115196809Y-86510809D01*
X115196809Y-86748904D01*
X115149190Y-86844142D01*
X115101571Y-86891761D01*
X115006333Y-86939380D01*
X114768238Y-86939380D01*
X114673000Y-86891761D01*
X114625380Y-86844142D01*
X82002380Y-89443333D02*
X82716666Y-89443333D01*
X82859523Y-89490952D01*
X82954761Y-89586190D01*
X83002380Y-89729047D01*
X83002380Y-89824285D01*
X83002380Y-88443333D02*
X83002380Y-89014761D01*
X83002380Y-88729047D02*
X82002380Y-88729047D01*
X82145238Y-88824285D01*
X82240476Y-88919523D01*
X82288095Y-89014761D01*
X91536666Y-101052380D02*
X91536666Y-101766666D01*
X91489047Y-101909523D01*
X91393809Y-102004761D01*
X91250952Y-102052380D01*
X91155714Y-102052380D01*
X91917619Y-101052380D02*
X92536666Y-101052380D01*
X92203333Y-101433333D01*
X92346190Y-101433333D01*
X92441428Y-101480952D01*
X92489047Y-101528571D01*
X92536666Y-101623809D01*
X92536666Y-101861904D01*
X92489047Y-101957142D01*
X92441428Y-102004761D01*
X92346190Y-102052380D01*
X92060476Y-102052380D01*
X91965238Y-102004761D01*
X91917619Y-101957142D01*
X87017380Y-94946190D02*
X86017380Y-94946190D01*
X86922142Y-93898571D02*
X86969761Y-93946190D01*
X87017380Y-94089047D01*
X87017380Y-94184285D01*
X86969761Y-94327142D01*
X86874523Y-94422380D01*
X86779285Y-94470000D01*
X86588809Y-94517619D01*
X86445952Y-94517619D01*
X86255476Y-94470000D01*
X86160238Y-94422380D01*
X86065000Y-94327142D01*
X86017380Y-94184285D01*
X86017380Y-94089047D01*
X86065000Y-93946190D01*
X86112619Y-93898571D01*
X87017380Y-92946190D02*
X87017380Y-93517619D01*
X87017380Y-93231904D02*
X86017380Y-93231904D01*
X86160238Y-93327142D01*
X86255476Y-93422380D01*
X86303095Y-93517619D01*
D11*
X108490000Y-102970000D02*
X115030000Y-102970000D01*
X115800000Y-101600000D02*
X115030000Y-101600000D01*
X115030000Y-100230000D02*
X108490000Y-100230000D01*
X115030000Y-102970000D02*
X115030000Y-100230000D01*
X107720000Y-101600000D02*
X108490000Y-101600000D01*
X108490000Y-100230000D02*
X108490000Y-102970000D01*
X81220000Y-100330000D02*
X81220000Y-102930000D01*
X81220000Y-100330000D02*
X83880000Y-100330000D01*
X81220000Y-102930000D02*
X83880000Y-102930000D01*
X81220000Y-99060000D02*
X81220000Y-97730000D01*
X81220000Y-97730000D02*
X82550000Y-97730000D01*
X83880000Y-100330000D02*
X83880000Y-102930000D01*
X102985000Y-26600000D02*
X90065000Y-26600000D01*
X102985000Y-87680000D02*
X102985000Y-26600000D01*
X90065000Y-26600000D02*
X90065000Y-87680000D01*
X97525000Y-87680000D02*
X102985000Y-87680000D01*
X90065000Y-87680000D02*
X95525000Y-87680000D01*
X97525000Y-87680000D02*
G75*
G03*
X95525000Y-87680000I-1000000J0D01*
G01*
X99125000Y-26540000D02*
X81225000Y-26540000D01*
X96635000Y-26600000D02*
X83715000Y-26600000D01*
X96635000Y-87680000D02*
X96635000Y-26600000D01*
X81225000Y-26540000D02*
X81225000Y-87740000D01*
X81225000Y-87740000D02*
X99125000Y-87740000D01*
X91175000Y-87680000D02*
X96635000Y-87680000D01*
X99125000Y-87740000D02*
X99125000Y-26540000D01*
X83715000Y-87680000D02*
X89175000Y-87680000D01*
X83715000Y-26600000D02*
X83715000Y-87680000D01*
X91175000Y-87680000D02*
G75*
G03*
X89175000Y-87680000I-1000000J0D01*
G01*
X102330000Y-102970000D02*
X102330000Y-100230000D01*
X95790000Y-100230000D02*
X95790000Y-102970000D01*
X102330000Y-100230000D02*
X95790000Y-100230000D01*
X95020000Y-101600000D02*
X95790000Y-101600000D01*
X95790000Y-102970000D02*
X102330000Y-102970000D01*
X103100000Y-101600000D02*
X102330000Y-101600000D01*
X100275000Y-26540000D02*
X100275000Y-87740000D01*
X110225000Y-87680000D02*
X115685000Y-87680000D01*
X102765000Y-26600000D02*
X102765000Y-87680000D01*
X118175000Y-87740000D02*
X118175000Y-26540000D01*
X115685000Y-87680000D02*
X115685000Y-26600000D01*
X102765000Y-87680000D02*
X108225000Y-87680000D01*
X118175000Y-26540000D02*
X100275000Y-26540000D01*
X115685000Y-26600000D02*
X102765000Y-26600000D01*
X100275000Y-87740000D02*
X118175000Y-87740000D01*
X110225000Y-87680000D02*
G75*
G03*
X108225000Y-87680000I-1000000J0D01*
G01*
X83880000Y-92710000D02*
X83880000Y-95310000D01*
X81220000Y-95310000D02*
X83880000Y-95310000D01*
X81220000Y-92710000D02*
X83880000Y-92710000D01*
X81220000Y-92710000D02*
X81220000Y-95310000D01*
X81220000Y-91440000D02*
X81220000Y-90110000D01*
X81220000Y-90110000D02*
X82550000Y-90110000D01*
X88270000Y-100270000D02*
X85670000Y-100270000D01*
X88270000Y-102930000D02*
X85670000Y-102930000D01*
X89540000Y-100270000D02*
X90870000Y-100270000D01*
X90870000Y-100270000D02*
X90870000Y-101600000D01*
X88270000Y-100270000D02*
X88270000Y-102930000D01*
X85670000Y-100270000D02*
X85670000Y-102930000D01*
X87565000Y-96620000D02*
X118165000Y-96620000D01*
X118165000Y-96620000D02*
X118165000Y-91320000D01*
X118165000Y-91320000D02*
X87565000Y-91320000D01*
X87505000Y-99110000D02*
X118225000Y-99110000D01*
X87505000Y-88830000D02*
X87505000Y-99110000D01*
X118225000Y-99110000D02*
X118225000Y-88830000D01*
X87565000Y-91320000D02*
X87565000Y-92970000D01*
X87565000Y-94970000D02*
X87565000Y-96620000D01*
X118225000Y-88830000D02*
X87505000Y-88830000D01*
X87565000Y-94970000D02*
G75*
G03*
X87565000Y-92970000I0J1000000D01*
G01*
%LPC*%
D12*
X116840000Y-101600000D03*
D13*
X106680000Y-101600000D03*
D14*
X82550000Y-99060000D03*
D15*
X82550000Y-101600000D03*
D16*
X104145000Y-86350000D03*
D13*
X104145000Y-83810000D03*
X104145000Y-81270000D03*
X104145000Y-78730000D03*
X104145000Y-76190000D03*
X104145000Y-73650000D03*
X104145000Y-71110000D03*
X104145000Y-68570000D03*
X104145000Y-66030000D03*
X104145000Y-63490000D03*
X104145000Y-60950000D03*
X104145000Y-58410000D03*
X104145000Y-55870000D03*
X104145000Y-53330000D03*
X104145000Y-50790000D03*
X104145000Y-48250000D03*
X104145000Y-45710000D03*
X104145000Y-43170000D03*
X104145000Y-40630000D03*
X104145000Y-38090000D03*
X104145000Y-35550000D03*
X104145000Y-33010000D03*
X104145000Y-30470000D03*
X104145000Y-27930000D03*
X88905000Y-27930000D03*
X88905000Y-30470000D03*
X88905000Y-33010000D03*
X88905000Y-35550000D03*
X88905000Y-38090000D03*
X88905000Y-40630000D03*
X88905000Y-43170000D03*
X88905000Y-45710000D03*
X88905000Y-48250000D03*
X88905000Y-50790000D03*
X88905000Y-53330000D03*
X88905000Y-55870000D03*
X88905000Y-58410000D03*
X88905000Y-60950000D03*
X88905000Y-63490000D03*
X88905000Y-66030000D03*
X88905000Y-68570000D03*
X88905000Y-71110000D03*
X88905000Y-73650000D03*
X88905000Y-76190000D03*
X88905000Y-78730000D03*
X88905000Y-81270000D03*
X88905000Y-83810000D03*
X88905000Y-86350000D03*
D16*
X97795000Y-86350000D03*
D13*
X97795000Y-83810000D03*
X97795000Y-81270000D03*
X97795000Y-78730000D03*
X97795000Y-76190000D03*
X97795000Y-73650000D03*
X97795000Y-71110000D03*
X97795000Y-68570000D03*
X97795000Y-66030000D03*
X97795000Y-63490000D03*
X97795000Y-60950000D03*
X97795000Y-58410000D03*
X97795000Y-55870000D03*
X97795000Y-53330000D03*
X97795000Y-50790000D03*
X97795000Y-48250000D03*
X97795000Y-45710000D03*
X97795000Y-43170000D03*
X97795000Y-40630000D03*
X97795000Y-38090000D03*
X97795000Y-35550000D03*
X97795000Y-33010000D03*
X97795000Y-30470000D03*
X97795000Y-27930000D03*
X82555000Y-27930000D03*
X82555000Y-30470000D03*
X82555000Y-33010000D03*
X82555000Y-35550000D03*
X82555000Y-38090000D03*
X82555000Y-40630000D03*
X82555000Y-43170000D03*
X82555000Y-45710000D03*
X82555000Y-48250000D03*
X82555000Y-50790000D03*
X82555000Y-53330000D03*
X82555000Y-55870000D03*
X82555000Y-58410000D03*
X82555000Y-60950000D03*
X82555000Y-63490000D03*
X82555000Y-66030000D03*
X82555000Y-68570000D03*
X82555000Y-71110000D03*
X82555000Y-73650000D03*
X82555000Y-76190000D03*
X82555000Y-78730000D03*
X82555000Y-81270000D03*
X82555000Y-83810000D03*
X82555000Y-86350000D03*
D12*
X104140000Y-101600000D03*
D13*
X93980000Y-101600000D03*
D16*
X116845000Y-86350000D03*
D13*
X116845000Y-83810000D03*
X116845000Y-81270000D03*
X116845000Y-78730000D03*
X116845000Y-76190000D03*
X116845000Y-73650000D03*
X116845000Y-71110000D03*
X116845000Y-68570000D03*
X116845000Y-66030000D03*
X116845000Y-63490000D03*
X116845000Y-60950000D03*
X116845000Y-58410000D03*
X116845000Y-55870000D03*
X116845000Y-53330000D03*
X116845000Y-50790000D03*
X116845000Y-48250000D03*
X116845000Y-45710000D03*
X116845000Y-43170000D03*
X116845000Y-40630000D03*
X116845000Y-38090000D03*
X116845000Y-35550000D03*
X116845000Y-33010000D03*
X116845000Y-30470000D03*
X116845000Y-27930000D03*
X101605000Y-27930000D03*
X101605000Y-30470000D03*
X101605000Y-33010000D03*
X101605000Y-35550000D03*
X101605000Y-38090000D03*
X101605000Y-40630000D03*
X101605000Y-43170000D03*
X101605000Y-45710000D03*
X101605000Y-48250000D03*
X101605000Y-50790000D03*
X101605000Y-53330000D03*
X101605000Y-55870000D03*
X101605000Y-58410000D03*
X101605000Y-60950000D03*
X101605000Y-63490000D03*
X101605000Y-66030000D03*
X101605000Y-68570000D03*
X101605000Y-71110000D03*
X101605000Y-73650000D03*
X101605000Y-76190000D03*
X101605000Y-78730000D03*
X101605000Y-81270000D03*
X101605000Y-83810000D03*
X101605000Y-86350000D03*
D14*
X82550000Y-91440000D03*
D15*
X82550000Y-93980000D03*
D14*
X89540000Y-101600000D03*
D15*
X87000000Y-101600000D03*
D16*
X88895000Y-97780000D03*
D13*
X91435000Y-97780000D03*
X93975000Y-97780000D03*
X96515000Y-97780000D03*
X99055000Y-97780000D03*
X101595000Y-97780000D03*
X104135000Y-97780000D03*
X106675000Y-97780000D03*
X109215000Y-97780000D03*
X111755000Y-97780000D03*
X114295000Y-97780000D03*
X116835000Y-97780000D03*
X116835000Y-90160000D03*
X114295000Y-90160000D03*
X111755000Y-90160000D03*
X109215000Y-90160000D03*
X106675000Y-90160000D03*
X104135000Y-90160000D03*
X101595000Y-90160000D03*
X99055000Y-90160000D03*
X96515000Y-90160000D03*
X93975000Y-90160000D03*
X91435000Y-90160000D03*
X88895000Y-90160000D03*
M02*
